<?xml version="1.0" encoding="utf-8" standalone="no"?>
<!DOCTYPE svg PUBLIC "-//W3C//DTD SVG 1.1//EN"
  "http://www.w3.org/Graphics/SVG/1.1/DTD/svg11.dtd">
<!-- Created with matplotlib (https://matplotlib.org/) -->
<svg height="288pt" version="1.1" viewBox="0 0 432 288" width="432pt" xmlns="http://www.w3.org/2000/svg" xmlns:xlink="http://www.w3.org/1999/xlink">
 <defs>
  <style type="text/css">
*{stroke-linecap:butt;stroke-linejoin:round;}
  </style>
 </defs>
 <g id="figure_1">
  <g id="patch_1">
   <path d="M 0 288 
L 432 288 
L 432 0 
L 0 0 
z
" style="fill:none;"/>
  </g>
  <g id="axes_1">
   <g id="patch_2">
    <path clip-path="url(#p5718e3b559)" d="M 266.827368 86.486625 
C 262.57188 78.103457 256.601024 70.707885 249.303188 64.780973 
C 242.005353 58.854062 233.54228 54.527169 224.464471 52.081748 
C 215.386663 49.636327 205.895311 49.126577 196.607805 50.585654 
C 187.320298 52.044732 178.442476 55.4403 170.551819 60.551485 
C 162.661162 65.66267 155.93255 72.376193 150.803664 80.255356 
C 145.674778 88.13452 142.259289 97.004696 140.779365 106.288904 
C 139.299442 115.573112 139.787884 125.065584 142.212919 134.148859 
C 144.637955 143.232134 148.945838 151.704899 154.856352 159.016022 
C 155.382542 148.566403 158.117603 138.345998 162.880785 129.030232 
C 167.643968 119.714466 174.327982 111.513174 182.49111 104.968347 
C 190.654237 98.42352 200.112604 93.682578 210.241146 91.058832 
C 220.369688 88.435085 230.940262 87.987633 241.2543 89.746046 
C 245.05072 87.44191 249.289271 85.960994 253.694561 85.399517 
C 258.099852 84.838039 262.574362 85.208431 266.827368 86.486625 
" style="fill:#10cafa;opacity:0.4;"/>
   </g>
   <g id="patch_3">
    <path clip-path="url(#p5718e3b559)" d="M 266.827368 86.486625 
C 268.158309 89.108535 269.315404 91.815127 270.291163 94.588881 
C 271.266922 97.362635 272.059234 100.197552 272.66297 103.07528 
C 275.857534 105.423268 278.858371 108.024032 281.636528 110.852481 
C 284.414685 113.68093 286.9612 116.727939 289.251502 119.964109 
C 289.973935 112.651251 288.131735 105.309917 284.042195 99.204554 
C 279.952656 93.09919 273.864867 88.601668 266.827368 86.486625 
" style="fill:#fc60ae;opacity:0.4;"/>
   </g>
   <g id="patch_4">
    <path clip-path="url(#p5718e3b559)" d="M 266.827368 86.486625 
C 262.574362 85.208431 258.099852 84.838039 253.694561 85.399517 
C 249.289271 85.960994 245.05072 87.44191 241.2543 89.746046 
C 246.917257 90.711508 252.448673 92.332708 257.736846 94.576907 
C 263.025019 96.821106 268.034111 99.673094 272.66297 103.07528 
C 272.059234 100.197552 271.266922 97.362635 270.291163 94.588881 
C 269.315404 91.815127 268.158309 89.108535 266.827368 86.486625 
" style="fill:#bcd1ff;opacity:0.4;"/>
   </g>
   <g id="patch_5">
    <path clip-path="url(#p5718e3b559)" d="M 154.856352 159.016022 
C 154.262747 170.804425 156.49632 182.565666 161.370196 193.315741 
C 166.244073 204.065817 173.618431 213.496325 182.876294 220.818262 
C 192.134158 228.1402 203.009934 233.143512 214.593701 235.409597 
C 226.177468 237.675681 238.136907 237.139529 249.471431 233.845996 
C 260.805956 230.552463 271.190396 224.596036 279.75594 216.475059 
C 288.321483 208.354081 294.822398 198.301532 298.714784 187.158457 
C 302.607171 176.015381 303.779363 164.101457 302.13329 152.413461 
C 300.487217 140.725465 296.070102 129.598708 289.251502 119.964109 
C 288.633946 126.215348 286.172123 132.14421 282.180115 136.994286 
C 278.188106 141.844362 272.843222 145.40023 266.827368 147.208229 
C 261.761563 157.187695 254.27774 165.742395 245.060333 172.089956 
C 235.842927 178.437517 225.181766 182.378348 214.051871 183.55204 
C 202.921976 184.725733 191.673312 183.09538 181.334628 178.810087 
C 170.995944 174.524794 161.892327 167.719307 154.856352 159.016022 
" style="fill:#55ab5f;opacity:0.4;"/>
   </g>
   <g id="patch_6">
    <path clip-path="url(#p5718e3b559)" d="M 154.856352 159.016022 
C 161.892327 167.719307 170.995944 174.524794 181.334628 178.810087 
C 191.673312 183.09538 202.921976 184.725733 214.051871 183.55204 
C 225.181766 182.378348 235.842927 178.437517 245.060333 172.089956 
C 254.27774 165.742395 261.761563 157.187695 266.827368 147.208229 
C 259.442019 149.427814 251.494685 148.878138 244.485233 145.662938 
C 237.475781 142.447737 231.874766 136.782855 228.739245 129.7374 
C 225.603723 122.691944 225.144188 114.73889 227.447365 107.379181 
C 229.750542 100.019472 234.661815 93.74718 241.2543 89.746046 
C 230.940262 87.987633 220.369688 88.435085 210.241146 91.058832 
C 200.112604 93.682578 190.654237 98.42352 182.49111 104.968347 
C 174.327982 111.513174 167.643968 119.714466 162.880785 129.030232 
C 158.117603 138.345998 155.382542 148.566403 154.856352 159.016022 
" style="fill:#47fff2;opacity:0.4;"/>
   </g>
   <g id="patch_7">
    <path clip-path="url(#p5718e3b559)" d="M 272.66297 103.07528 
C 274.219527 110.49466 274.507049 118.124521 273.513293 125.640005 
C 272.519537 133.15549 270.25881 140.448402 266.827368 147.208229 
C 272.843222 145.40023 278.188106 141.844362 282.180115 136.994286 
C 286.172123 132.14421 288.633946 126.215348 289.251502 119.964109 
C 286.9612 116.727939 284.414685 113.68093 281.636528 110.852481 
C 278.858371 108.024032 275.857534 105.423268 272.66297 103.07528 
" style="fill:#ecbbbc;opacity:0.4;"/>
   </g>
   <g id="patch_8">
    <path clip-path="url(#p5718e3b559)" d="M 241.2543 89.746046 
C 234.661815 93.74718 229.750542 100.019472 227.447365 107.379181 
C 225.144188 114.73889 225.603723 122.691944 228.739245 129.7374 
C 231.874766 136.782855 237.475781 142.447737 244.485233 145.662938 
C 251.494685 148.878138 259.442019 149.427814 266.827368 147.208229 
C 270.25881 140.448402 272.519537 133.15549 273.513293 125.640005 
C 274.507049 118.124521 274.219527 110.49466 272.66297 103.07528 
C 268.034111 99.673094 263.025019 96.821106 257.736846 94.576907 
C 252.448673 92.332708 246.917257 90.711508 241.2543 89.746046 
" style="fill:#8dbcd0;opacity:0.4;"/>
   </g>
   <g id="text_1">
    <!-- 328 -->
    <defs>
     <path d="M 40.578125 39.3125 
Q 47.65625 37.796875 51.625 33 
Q 55.609375 28.21875 55.609375 21.1875 
Q 55.609375 10.40625 48.1875 4.484375 
Q 40.765625 -1.421875 27.09375 -1.421875 
Q 22.515625 -1.421875 17.65625 -0.515625 
Q 12.796875 0.390625 7.625 2.203125 
L 7.625 11.71875 
Q 11.71875 9.328125 16.59375 8.109375 
Q 21.484375 6.890625 26.8125 6.890625 
Q 36.078125 6.890625 40.9375 10.546875 
Q 45.796875 14.203125 45.796875 21.1875 
Q 45.796875 27.640625 41.28125 31.265625 
Q 36.765625 34.90625 28.71875 34.90625 
L 20.21875 34.90625 
L 20.21875 43.015625 
L 29.109375 43.015625 
Q 36.375 43.015625 40.234375 45.921875 
Q 44.09375 48.828125 44.09375 54.296875 
Q 44.09375 59.90625 40.109375 62.90625 
Q 36.140625 65.921875 28.71875 65.921875 
Q 24.65625 65.921875 20.015625 65.03125 
Q 15.375 64.15625 9.8125 62.3125 
L 9.8125 71.09375 
Q 15.4375 72.65625 20.34375 73.4375 
Q 25.25 74.21875 29.59375 74.21875 
Q 40.828125 74.21875 47.359375 69.109375 
Q 53.90625 64.015625 53.90625 55.328125 
Q 53.90625 49.265625 50.4375 45.09375 
Q 46.96875 40.921875 40.578125 39.3125 
z
" id="DejaVuSans-51"/>
     <path d="M 19.1875 8.296875 
L 53.609375 8.296875 
L 53.609375 0 
L 7.328125 0 
L 7.328125 8.296875 
Q 12.9375 14.109375 22.625 23.890625 
Q 32.328125 33.6875 34.8125 36.53125 
Q 39.546875 41.84375 41.421875 45.53125 
Q 43.3125 49.21875 43.3125 52.78125 
Q 43.3125 58.59375 39.234375 62.25 
Q 35.15625 65.921875 28.609375 65.921875 
Q 23.96875 65.921875 18.8125 64.3125 
Q 13.671875 62.703125 7.8125 59.421875 
L 7.8125 69.390625 
Q 13.765625 71.78125 18.9375 73 
Q 24.125 74.21875 28.421875 74.21875 
Q 39.75 74.21875 46.484375 68.546875 
Q 53.21875 62.890625 53.21875 53.421875 
Q 53.21875 48.921875 51.53125 44.890625 
Q 49.859375 40.875 45.40625 35.40625 
Q 44.1875 33.984375 37.640625 27.21875 
Q 31.109375 20.453125 19.1875 8.296875 
z
" id="DejaVuSans-50"/>
     <path d="M 31.78125 34.625 
Q 24.75 34.625 20.71875 30.859375 
Q 16.703125 27.09375 16.703125 20.515625 
Q 16.703125 13.921875 20.71875 10.15625 
Q 24.75 6.390625 31.78125 6.390625 
Q 38.8125 6.390625 42.859375 10.171875 
Q 46.921875 13.96875 46.921875 20.515625 
Q 46.921875 27.09375 42.890625 30.859375 
Q 38.875 34.625 31.78125 34.625 
z
M 21.921875 38.8125 
Q 15.578125 40.375 12.03125 44.71875 
Q 8.5 49.078125 8.5 55.328125 
Q 8.5 64.0625 14.71875 69.140625 
Q 20.953125 74.21875 31.78125 74.21875 
Q 42.671875 74.21875 48.875 69.140625 
Q 55.078125 64.0625 55.078125 55.328125 
Q 55.078125 49.078125 51.53125 44.71875 
Q 48 40.375 41.703125 38.8125 
Q 48.828125 37.15625 52.796875 32.3125 
Q 56.78125 27.484375 56.78125 20.515625 
Q 56.78125 9.90625 50.3125 4.234375 
Q 43.84375 -1.421875 31.78125 -1.421875 
Q 19.734375 -1.421875 13.25 4.234375 
Q 6.78125 9.90625 6.78125 20.515625 
Q 6.78125 27.484375 10.78125 32.3125 
Q 14.796875 37.15625 21.921875 38.8125 
z
M 18.3125 54.390625 
Q 18.3125 48.734375 21.84375 45.5625 
Q 25.390625 42.390625 31.78125 42.390625 
Q 38.140625 42.390625 41.71875 45.5625 
Q 45.3125 48.734375 45.3125 54.390625 
Q 45.3125 60.0625 41.71875 63.234375 
Q 38.140625 66.40625 31.78125 66.40625 
Q 25.390625 66.40625 21.84375 63.234375 
Q 18.3125 60.0625 18.3125 54.390625 
z
" id="DejaVuSans-56"/>
    </defs>
    <g transform="translate(176.283546 79.615039)scale(0.1 -0.1)">
     <use xlink:href="#DejaVuSans-51"/>
     <use x="63.623047" xlink:href="#DejaVuSans-50"/>
     <use x="127.246094" xlink:href="#DejaVuSans-56"/>
    </g>
   </g>
   <g id="text_2">
    <!-- 23 -->
    <g transform="translate(275.442446 103.251992)scale(0.1 -0.1)">
     <use xlink:href="#DejaVuSans-50"/>
     <use x="63.623047" xlink:href="#DejaVuSans-51"/>
    </g>
   </g>
   <g id="text_3">
    <!-- 7 -->
    <defs>
     <path d="M 8.203125 72.90625 
L 55.078125 72.90625 
L 55.078125 68.703125 
L 28.609375 0 
L 18.3125 0 
L 43.21875 64.59375 
L 8.203125 64.59375 
z
" id="DejaVuSans-55"/>
    </defs>
    <g transform="translate(254.501752 92.428456)scale(0.1 -0.1)">
     <use xlink:href="#DejaVuSans-55"/>
    </g>
   </g>
   <g id="text_4">
    <!-- 502 -->
    <defs>
     <path d="M 10.796875 72.90625 
L 49.515625 72.90625 
L 49.515625 64.59375 
L 19.828125 64.59375 
L 19.828125 46.734375 
Q 21.96875 47.46875 24.109375 47.828125 
Q 26.265625 48.1875 28.421875 48.1875 
Q 40.625 48.1875 47.75 41.5 
Q 54.890625 34.8125 54.890625 23.390625 
Q 54.890625 11.625 47.5625 5.09375 
Q 40.234375 -1.421875 26.90625 -1.421875 
Q 22.3125 -1.421875 17.546875 -0.640625 
Q 12.796875 0.140625 7.71875 1.703125 
L 7.71875 11.625 
Q 12.109375 9.234375 16.796875 8.0625 
Q 21.484375 6.890625 26.703125 6.890625 
Q 35.15625 6.890625 40.078125 11.328125 
Q 45.015625 15.765625 45.015625 23.390625 
Q 45.015625 31 40.078125 35.4375 
Q 35.15625 39.890625 26.703125 39.890625 
Q 22.75 39.890625 18.8125 39.015625 
Q 14.890625 38.140625 10.796875 36.28125 
z
" id="DejaVuSans-53"/>
     <path d="M 31.78125 66.40625 
Q 24.171875 66.40625 20.328125 58.90625 
Q 16.5 51.421875 16.5 36.375 
Q 16.5 21.390625 20.328125 13.890625 
Q 24.171875 6.390625 31.78125 6.390625 
Q 39.453125 6.390625 43.28125 13.890625 
Q 47.125 21.390625 47.125 36.375 
Q 47.125 51.421875 43.28125 58.90625 
Q 39.453125 66.40625 31.78125 66.40625 
z
M 31.78125 74.21875 
Q 44.046875 74.21875 50.515625 64.515625 
Q 56.984375 54.828125 56.984375 36.375 
Q 56.984375 17.96875 50.515625 8.265625 
Q 44.046875 -1.421875 31.78125 -1.421875 
Q 19.53125 -1.421875 13.0625 8.265625 
Q 6.59375 17.96875 6.59375 36.375 
Q 6.59375 54.828125 13.0625 64.515625 
Q 19.53125 74.21875 31.78125 74.21875 
z
" id="DejaVuSans-48"/>
    </defs>
    <g transform="translate(235.350793 205.874446)scale(0.1 -0.1)">
     <use xlink:href="#DejaVuSans-53"/>
     <use x="63.623047" xlink:href="#DejaVuSans-48"/>
     <use x="127.246094" xlink:href="#DejaVuSans-50"/>
    </g>
   </g>
   <g id="text_5">
    <!-- 379 -->
    <defs>
     <path d="M 10.984375 1.515625 
L 10.984375 10.5 
Q 14.703125 8.734375 18.5 7.8125 
Q 22.3125 6.890625 25.984375 6.890625 
Q 35.75 6.890625 40.890625 13.453125 
Q 46.046875 20.015625 46.78125 33.40625 
Q 43.953125 29.203125 39.59375 26.953125 
Q 35.25 24.703125 29.984375 24.703125 
Q 19.046875 24.703125 12.671875 31.3125 
Q 6.296875 37.9375 6.296875 49.421875 
Q 6.296875 60.640625 12.9375 67.421875 
Q 19.578125 74.21875 30.609375 74.21875 
Q 43.265625 74.21875 49.921875 64.515625 
Q 56.59375 54.828125 56.59375 36.375 
Q 56.59375 19.140625 48.40625 8.859375 
Q 40.234375 -1.421875 26.421875 -1.421875 
Q 22.703125 -1.421875 18.890625 -0.6875 
Q 15.09375 0.046875 10.984375 1.515625 
z
M 30.609375 32.421875 
Q 37.25 32.421875 41.125 36.953125 
Q 45.015625 41.5 45.015625 49.421875 
Q 45.015625 57.28125 41.125 61.84375 
Q 37.25 66.40625 30.609375 66.40625 
Q 23.96875 66.40625 20.09375 61.84375 
Q 16.21875 57.28125 16.21875 49.421875 
Q 16.21875 41.5 20.09375 36.953125 
Q 23.96875 32.421875 30.609375 32.421875 
z
" id="DejaVuSans-57"/>
    </defs>
    <g transform="translate(202.84903 142.445256)scale(0.1 -0.1)">
     <use xlink:href="#DejaVuSans-51"/>
     <use x="63.623047" xlink:href="#DejaVuSans-55"/>
     <use x="127.246094" xlink:href="#DejaVuSans-57"/>
    </g>
   </g>
   <g id="text_6">
    <!-- 20 -->
    <g transform="translate(273.045389 132.372945)scale(0.1 -0.1)">
     <use xlink:href="#DejaVuSans-50"/>
     <use x="63.623047" xlink:href="#DejaVuSans-48"/>
    </g>
   </g>
   <g id="text_7">
    <!-- 141 -->
    <defs>
     <path d="M 12.40625 8.296875 
L 28.515625 8.296875 
L 28.515625 63.921875 
L 10.984375 60.40625 
L 10.984375 69.390625 
L 28.421875 72.90625 
L 38.28125 72.90625 
L 38.28125 8.296875 
L 54.390625 8.296875 
L 54.390625 0 
L 12.40625 0 
z
" id="DejaVuSans-49"/>
     <path d="M 37.796875 64.3125 
L 12.890625 25.390625 
L 37.796875 25.390625 
z
M 35.203125 72.90625 
L 47.609375 72.90625 
L 47.609375 25.390625 
L 58.015625 25.390625 
L 58.015625 17.1875 
L 47.609375 17.1875 
L 47.609375 0 
L 37.796875 0 
L 37.796875 17.1875 
L 4.890625 17.1875 
L 4.890625 26.703125 
z
" id="DejaVuSans-52"/>
    </defs>
    <g transform="translate(230.058672 127.751722)scale(0.1 -0.1)">
     <use xlink:href="#DejaVuSans-49"/>
     <use x="63.623047" xlink:href="#DejaVuSans-52"/>
     <use x="127.246094" xlink:href="#DejaVuSans-49"/>
    </g>
   </g>
   <g id="text_8">
    <!-- Pat 31 -->
    <defs>
     <path d="M 19.671875 64.796875 
L 19.671875 37.40625 
L 32.078125 37.40625 
Q 38.96875 37.40625 42.71875 40.96875 
Q 46.484375 44.53125 46.484375 51.125 
Q 46.484375 57.671875 42.71875 61.234375 
Q 38.96875 64.796875 32.078125 64.796875 
z
M 9.8125 72.90625 
L 32.078125 72.90625 
Q 44.34375 72.90625 50.609375 67.359375 
Q 56.890625 61.8125 56.890625 51.125 
Q 56.890625 40.328125 50.609375 34.8125 
Q 44.34375 29.296875 32.078125 29.296875 
L 19.671875 29.296875 
L 19.671875 0 
L 9.8125 0 
z
" id="DejaVuSans-80"/>
     <path d="M 34.28125 27.484375 
Q 23.390625 27.484375 19.1875 25 
Q 14.984375 22.515625 14.984375 16.5 
Q 14.984375 11.71875 18.140625 8.90625 
Q 21.296875 6.109375 26.703125 6.109375 
Q 34.1875 6.109375 38.703125 11.40625 
Q 43.21875 16.703125 43.21875 25.484375 
L 43.21875 27.484375 
z
M 52.203125 31.203125 
L 52.203125 0 
L 43.21875 0 
L 43.21875 8.296875 
Q 40.140625 3.328125 35.546875 0.953125 
Q 30.953125 -1.421875 24.3125 -1.421875 
Q 15.921875 -1.421875 10.953125 3.296875 
Q 6 8.015625 6 15.921875 
Q 6 25.140625 12.171875 29.828125 
Q 18.359375 34.515625 30.609375 34.515625 
L 43.21875 34.515625 
L 43.21875 35.40625 
Q 43.21875 41.609375 39.140625 45 
Q 35.0625 48.390625 27.6875 48.390625 
Q 23 48.390625 18.546875 47.265625 
Q 14.109375 46.140625 10.015625 43.890625 
L 10.015625 52.203125 
Q 14.9375 54.109375 19.578125 55.046875 
Q 24.21875 56 28.609375 56 
Q 40.484375 56 46.34375 49.84375 
Q 52.203125 43.703125 52.203125 31.203125 
z
" id="DejaVuSans-97"/>
     <path d="M 18.3125 70.21875 
L 18.3125 54.6875 
L 36.8125 54.6875 
L 36.8125 47.703125 
L 18.3125 47.703125 
L 18.3125 18.015625 
Q 18.3125 11.328125 20.140625 9.421875 
Q 21.96875 7.515625 27.59375 7.515625 
L 36.8125 7.515625 
L 36.8125 0 
L 27.59375 0 
Q 17.1875 0 13.234375 3.875 
Q 9.28125 7.765625 9.28125 18.015625 
L 9.28125 47.703125 
L 2.6875 47.703125 
L 2.6875 54.6875 
L 9.28125 54.6875 
L 9.28125 70.21875 
z
" id="DejaVuSans-116"/>
     <path id="DejaVuSans-32"/>
    </defs>
    <g transform="translate(135.64286 49.772943)scale(0.12 -0.12)">
     <use xlink:href="#DejaVuSans-80"/>
     <use x="55.802734" xlink:href="#DejaVuSans-97"/>
     <use x="117.082031" xlink:href="#DejaVuSans-116"/>
     <use x="156.291016" xlink:href="#DejaVuSans-32"/>
     <use x="188.078125" xlink:href="#DejaVuSans-51"/>
     <use x="251.701172" xlink:href="#DejaVuSans-49"/>
    </g>
   </g>
   <g id="text_9">
    <!-- Pat 34 -->
    <g transform="translate(273.553919 85.145113)scale(0.12 -0.12)">
     <use xlink:href="#DejaVuSans-80"/>
     <use x="55.802734" xlink:href="#DejaVuSans-97"/>
     <use x="117.082031" xlink:href="#DejaVuSans-116"/>
     <use x="156.291016" xlink:href="#DejaVuSans-32"/>
     <use x="188.078125" xlink:href="#DejaVuSans-51"/>
     <use x="251.701172" xlink:href="#DejaVuSans-52"/>
    </g>
   </g>
   <g id="text_10">
    <!-- Pat 39 -->
    <g transform="translate(209.891017 253.309894)scale(0.12 -0.12)">
     <use xlink:href="#DejaVuSans-80"/>
     <use x="55.802734" xlink:href="#DejaVuSans-97"/>
     <use x="117.082031" xlink:href="#DejaVuSans-116"/>
     <use x="156.291016" xlink:href="#DejaVuSans-32"/>
     <use x="188.078125" xlink:href="#DejaVuSans-51"/>
     <use x="251.701172" xlink:href="#DejaVuSans-57"/>
    </g>
   </g>
  </g>
 </g>
 <defs>
  <clipPath id="p5718e3b559">
   <rect height="217.44" width="193.33965" x="124.730175" y="34.56"/>
  </clipPath>
 </defs>
</svg>
