<?xml version="1.0" encoding="utf-8" standalone="no"?>
<!DOCTYPE svg PUBLIC "-//W3C//DTD SVG 1.1//EN"
  "http://www.w3.org/Graphics/SVG/1.1/DTD/svg11.dtd">
<!-- Created with matplotlib (https://matplotlib.org/) -->
<svg height="288pt" version="1.1" viewBox="0 0 432 288" width="432pt" xmlns="http://www.w3.org/2000/svg" xmlns:xlink="http://www.w3.org/1999/xlink">
 <defs>
  <style type="text/css">
*{stroke-linecap:butt;stroke-linejoin:round;}
  </style>
 </defs>
 <g id="figure_1">
  <g id="patch_1">
   <path d="M 0 288 
L 432 288 
L 432 0 
L 0 0 
z
" style="fill:none;"/>
  </g>
  <g id="axes_1">
   <g id="patch_2">
    <path clip-path="url(#pc0e4d78ab0)" d="M 267.052408 86.758066 
C 262.73185 78.232322 256.648387 70.721281 249.206144 64.723903 
C 241.7639 58.726525 233.131405 54.378618 223.882117 51.969016 
C 214.632828 49.559414 204.976193 49.14268 195.553704 50.746499 
C 186.131216 52.350318 177.156243 55.938371 169.224996 61.272304 
C 161.293748 66.606237 154.585827 73.565264 149.54684 81.687095 
C 144.507853 89.808926 141.251908 98.909645 139.995296 108.384689 
C 138.738685 117.859732 139.509864 127.494541 142.257603 136.649073 
C 145.005342 145.803606 149.66742 154.270558 155.934133 161.487471 
C 156.155367 150.940775 158.637329 140.563329 163.211958 131.057829 
C 167.786587 121.55233 174.348243 113.138282 182.452611 106.385433 
C 190.556978 99.632583 200.016909 94.696873 210.191834 91.912516 
C 220.36676 89.128159 231.021716 88.559454 241.435217 90.24491 
C 245.222026 87.9004 249.459909 86.378268 253.873052 85.77758 
C 258.286194 85.176892 262.776733 85.510968 267.052408 86.758066 
" style="fill:#10cafa;opacity:0.4;"/>
   </g>
   <g id="patch_3">
    <path clip-path="url(#pc0e4d78ab0)" d="M 267.052408 86.758066 
C 268.377608 89.373079 269.53095 92.071693 270.505096 94.836741 
C 271.479242 97.601789 272.272122 100.427396 272.878694 103.295588 
C 276.135716 105.652258 279.194556 108.271353 282.024615 111.126673 
C 284.854674 113.981993 287.446485 117.063985 289.77412 120.34182 
C 290.493496 112.975118 288.616064 105.5837 284.468386 99.453238 
C 280.320708 93.322775 274.15807 88.830593 267.052408 86.758066 
" style="fill:#fc60ae;opacity:0.4;"/>
   </g>
   <g id="patch_4">
    <path clip-path="url(#pc0e4d78ab0)" d="M 267.052408 86.758066 
C 262.776733 85.510968 258.286194 85.176892 253.873052 85.77758 
C 249.459909 86.378268 245.222026 87.9004 241.435217 90.24491 
C 247.093736 91.160758 252.626209 92.733319 257.92046 94.930709 
C 263.214711 97.128098 268.234717 99.935364 272.878694 103.295588 
C 272.272122 100.427396 271.479242 97.601789 270.505096 94.836741 
C 269.53095 92.071693 268.377608 89.373079 267.052408 86.758066 
" style="fill:#bcd1ff;opacity:0.4;"/>
   </g>
   <g id="patch_5">
    <path clip-path="url(#pc0e4d78ab0)" d="M 155.934133 161.487471 
C 155.689446 173.152249 158.21681 184.710241 163.307796 195.208277 
C 168.398782 205.706314 175.909486 214.847652 185.220513 221.878419 
C 194.53154 228.909187 205.379698 233.630649 216.870357 235.653434 
C 228.361016 237.676218 240.169376 236.943148 251.321618 233.514679 
C 262.47386 230.08621 272.654751 224.059252 281.024686 215.93084 
C 289.394622 207.802428 295.717015 197.802323 299.470466 186.755219 
C 303.223917 175.708114 304.30233 163.926274 302.616769 152.381327 
C 300.931209 140.83638 296.52932 129.854663 289.77412 120.34182 
C 289.15748 126.656462 286.662965 132.643873 282.613731 137.528405 
C 278.564497 142.412937 273.14329 145.974146 267.052408 147.75069 
C 262.053003 157.616 254.703561 166.102244 245.653519 172.459533 
C 236.603476 178.816822 226.127493 182.852217 215.151283 184.20913 
C 204.175073 185.566042 193.031755 184.203291 182.706011 180.241297 
C 172.380267 176.279302 163.185474 169.838307 155.934133 161.487471 
" style="fill:#55ab5f;opacity:0.4;"/>
   </g>
   <g id="patch_6">
    <path clip-path="url(#pc0e4d78ab0)" d="M 155.934133 161.487471 
C 163.185474 169.838307 172.380267 176.279302 182.706011 180.241297 
C 193.031755 184.203291 204.175073 185.566042 215.151283 184.20913 
C 226.127493 182.852217 236.603476 178.816822 245.653519 172.459533 
C 254.703561 166.102244 262.053003 157.616 267.052408 147.75069 
C 259.678724 149.901392 251.769525 149.30646 244.800546 146.076898 
C 237.831567 142.847336 232.264989 137.197329 229.139449 130.181081 
C 226.01391 123.164832 225.536694 115.247658 227.796844 107.906782 
C 230.056993 100.565906 234.904615 94.288172 241.435217 90.24491 
C 231.021716 88.559454 220.36676 89.128159 210.191834 91.912516 
C 200.016909 94.696873 190.556978 99.632583 182.452611 106.385433 
C 174.348243 113.138282 167.786587 121.55233 163.211958 131.057829 
C 158.637329 140.563329 156.155367 150.940775 155.934133 161.487471 
" style="fill:#47fff2;opacity:0.4;"/>
   </g>
   <g id="patch_7">
    <path clip-path="url(#pc0e4d78ab0)" d="M 272.878694 103.295588 
C 274.458532 110.765901 274.758745 118.450497 273.766517 126.021294 
C 272.774288 133.59209 270.503942 140.939788 267.052408 147.75069 
C 273.14329 145.974146 278.564497 142.412937 282.613731 137.528405 
C 286.662965 132.643873 289.15748 126.656462 289.77412 120.34182 
C 287.446485 117.063985 284.854674 113.981993 282.024615 111.126673 
C 279.194556 108.271353 276.135716 105.652258 272.878694 103.295588 
" style="fill:#ecbbbc;opacity:0.4;"/>
   </g>
   <g id="patch_8">
    <path clip-path="url(#pc0e4d78ab0)" d="M 241.435217 90.24491 
C 234.904615 94.288172 230.056993 100.565906 227.796844 107.906782 
C 225.536694 115.247658 226.01391 123.164832 229.139449 130.181081 
C 232.264989 137.197329 237.831567 142.847336 244.800546 146.076898 
C 251.769525 149.30646 259.678724 149.901392 267.052408 147.75069 
C 270.503942 140.939788 272.774288 133.59209 273.766517 126.021294 
C 274.758745 118.450497 274.458532 110.765901 272.878694 103.295588 
C 268.234717 99.935364 263.214711 97.128098 257.92046 94.930709 
C 252.626209 92.733319 247.093736 91.160758 241.435217 90.24491 
" style="fill:#8dbcd0;opacity:0.4;"/>
   </g>
   <g id="text_1">
    <!-- 347 -->
    <defs>
     <path d="M 40.578125 39.3125 
Q 47.65625 37.796875 51.625 33 
Q 55.609375 28.21875 55.609375 21.1875 
Q 55.609375 10.40625 48.1875 4.484375 
Q 40.765625 -1.421875 27.09375 -1.421875 
Q 22.515625 -1.421875 17.65625 -0.515625 
Q 12.796875 0.390625 7.625 2.203125 
L 7.625 11.71875 
Q 11.71875 9.328125 16.59375 8.109375 
Q 21.484375 6.890625 26.8125 6.890625 
Q 36.078125 6.890625 40.9375 10.546875 
Q 45.796875 14.203125 45.796875 21.1875 
Q 45.796875 27.640625 41.28125 31.265625 
Q 36.765625 34.90625 28.71875 34.90625 
L 20.21875 34.90625 
L 20.21875 43.015625 
L 29.109375 43.015625 
Q 36.375 43.015625 40.234375 45.921875 
Q 44.09375 48.828125 44.09375 54.296875 
Q 44.09375 59.90625 40.109375 62.90625 
Q 36.140625 65.921875 28.71875 65.921875 
Q 24.65625 65.921875 20.015625 65.03125 
Q 15.375 64.15625 9.8125 62.3125 
L 9.8125 71.09375 
Q 15.4375 72.65625 20.34375 73.4375 
Q 25.25 74.21875 29.59375 74.21875 
Q 40.828125 74.21875 47.359375 69.109375 
Q 53.90625 64.015625 53.90625 55.328125 
Q 53.90625 49.265625 50.4375 45.09375 
Q 46.96875 40.921875 40.578125 39.3125 
z
" id="DejaVuSans-51"/>
     <path d="M 37.796875 64.3125 
L 12.890625 25.390625 
L 37.796875 25.390625 
z
M 35.203125 72.90625 
L 47.609375 72.90625 
L 47.609375 25.390625 
L 58.015625 25.390625 
L 58.015625 17.1875 
L 47.609375 17.1875 
L 47.609375 0 
L 37.796875 0 
L 37.796875 17.1875 
L 4.890625 17.1875 
L 4.890625 26.703125 
z
" id="DejaVuSans-52"/>
     <path d="M 8.203125 72.90625 
L 55.078125 72.90625 
L 55.078125 68.703125 
L 28.609375 0 
L 18.3125 0 
L 43.21875 64.59375 
L 8.203125 64.59375 
z
" id="DejaVuSans-55"/>
    </defs>
    <g transform="translate(175.444602 80.489743)scale(0.1 -0.1)">
     <use xlink:href="#DejaVuSans-51"/>
     <use x="63.623047" xlink:href="#DejaVuSans-52"/>
     <use x="127.246094" xlink:href="#DejaVuSans-55"/>
    </g>
   </g>
   <g id="text_2">
    <!-- 24 -->
    <defs>
     <path d="M 19.1875 8.296875 
L 53.609375 8.296875 
L 53.609375 0 
L 7.328125 0 
L 7.328125 8.296875 
Q 12.9375 14.109375 22.625 23.890625 
Q 32.328125 33.6875 34.8125 36.53125 
Q 39.546875 41.84375 41.421875 45.53125 
Q 43.3125 49.21875 43.3125 52.78125 
Q 43.3125 58.59375 39.234375 62.25 
Q 35.15625 65.921875 28.609375 65.921875 
Q 23.96875 65.921875 18.8125 64.3125 
Q 13.671875 62.703125 7.8125 59.421875 
L 7.8125 69.390625 
Q 13.765625 71.78125 18.9375 73 
Q 24.125 74.21875 28.421875 74.21875 
Q 39.75 74.21875 46.484375 68.546875 
Q 53.21875 62.890625 53.21875 53.421875 
Q 53.21875 48.921875 51.53125 44.890625 
Q 49.859375 40.875 45.40625 35.40625 
Q 44.1875 33.984375 37.640625 27.21875 
Q 31.109375 20.453125 19.1875 8.296875 
z
" id="DejaVuSans-50"/>
    </defs>
    <g transform="translate(275.855138 103.537908)scale(0.1 -0.1)">
     <use xlink:href="#DejaVuSans-50"/>
     <use x="63.623047" xlink:href="#DejaVuSans-52"/>
    </g>
   </g>
   <g id="text_3">
    <!-- 7 -->
    <g transform="translate(254.667376 92.771384)scale(0.1 -0.1)">
     <use xlink:href="#DejaVuSans-55"/>
    </g>
   </g>
   <g id="text_4">
    <!-- 505 -->
    <defs>
     <path d="M 10.796875 72.90625 
L 49.515625 72.90625 
L 49.515625 64.59375 
L 19.828125 64.59375 
L 19.828125 46.734375 
Q 21.96875 47.46875 24.109375 47.828125 
Q 26.265625 48.1875 28.421875 48.1875 
Q 40.625 48.1875 47.75 41.5 
Q 54.890625 34.8125 54.890625 23.390625 
Q 54.890625 11.625 47.5625 5.09375 
Q 40.234375 -1.421875 26.90625 -1.421875 
Q 22.3125 -1.421875 17.546875 -0.640625 
Q 12.796875 0.140625 7.71875 1.703125 
L 7.71875 11.625 
Q 12.109375 9.234375 16.796875 8.0625 
Q 21.484375 6.890625 26.703125 6.890625 
Q 35.15625 6.890625 40.078125 11.328125 
Q 45.015625 15.765625 45.015625 23.390625 
Q 45.015625 31 40.078125 35.4375 
Q 35.15625 39.890625 26.703125 39.890625 
Q 22.75 39.890625 18.8125 39.015625 
Q 14.890625 38.140625 10.796875 36.28125 
z
" id="DejaVuSans-53"/>
     <path d="M 31.78125 66.40625 
Q 24.171875 66.40625 20.328125 58.90625 
Q 16.5 51.421875 16.5 36.375 
Q 16.5 21.390625 20.328125 13.890625 
Q 24.171875 6.390625 31.78125 6.390625 
Q 39.453125 6.390625 43.28125 13.890625 
Q 47.125 21.390625 47.125 36.375 
Q 47.125 51.421875 43.28125 58.90625 
Q 39.453125 66.40625 31.78125 66.40625 
z
M 31.78125 74.21875 
Q 44.046875 74.21875 50.515625 64.515625 
Q 56.984375 54.828125 56.984375 36.375 
Q 56.984375 17.96875 50.515625 8.265625 
Q 44.046875 -1.421875 31.78125 -1.421875 
Q 19.53125 -1.421875 13.0625 8.265625 
Q 6.59375 17.96875 6.59375 36.375 
Q 6.59375 54.828125 13.0625 64.515625 
Q 19.53125 74.21875 31.78125 74.21875 
z
" id="DejaVuSans-48"/>
    </defs>
    <g transform="translate(236.930778 205.856858)scale(0.1 -0.1)">
     <use xlink:href="#DejaVuSans-53"/>
     <use x="63.623047" xlink:href="#DejaVuSans-48"/>
     <use x="127.246094" xlink:href="#DejaVuSans-53"/>
    </g>
   </g>
   <g id="text_5">
    <!-- 386 -->
    <defs>
     <path d="M 31.78125 34.625 
Q 24.75 34.625 20.71875 30.859375 
Q 16.703125 27.09375 16.703125 20.515625 
Q 16.703125 13.921875 20.71875 10.15625 
Q 24.75 6.390625 31.78125 6.390625 
Q 38.8125 6.390625 42.859375 10.171875 
Q 46.921875 13.96875 46.921875 20.515625 
Q 46.921875 27.09375 42.890625 30.859375 
Q 38.875 34.625 31.78125 34.625 
z
M 21.921875 38.8125 
Q 15.578125 40.375 12.03125 44.71875 
Q 8.5 49.078125 8.5 55.328125 
Q 8.5 64.0625 14.71875 69.140625 
Q 20.953125 74.21875 31.78125 74.21875 
Q 42.671875 74.21875 48.875 69.140625 
Q 55.078125 64.0625 55.078125 55.328125 
Q 55.078125 49.078125 51.53125 44.71875 
Q 48 40.375 41.703125 38.8125 
Q 48.828125 37.15625 52.796875 32.3125 
Q 56.78125 27.484375 56.78125 20.515625 
Q 56.78125 9.90625 50.3125 4.234375 
Q 43.84375 -1.421875 31.78125 -1.421875 
Q 19.734375 -1.421875 13.25 4.234375 
Q 6.78125 9.90625 6.78125 20.515625 
Q 6.78125 27.484375 10.78125 32.3125 
Q 14.796875 37.15625 21.921875 38.8125 
z
M 18.3125 54.390625 
Q 18.3125 48.734375 21.84375 45.5625 
Q 25.390625 42.390625 31.78125 42.390625 
Q 38.140625 42.390625 41.71875 45.5625 
Q 45.3125 48.734375 45.3125 54.390625 
Q 45.3125 60.0625 41.71875 63.234375 
Q 38.140625 66.40625 31.78125 66.40625 
Q 25.390625 66.40625 21.84375 63.234375 
Q 18.3125 60.0625 18.3125 54.390625 
z
" id="DejaVuSans-56"/>
     <path d="M 33.015625 40.375 
Q 26.375 40.375 22.484375 35.828125 
Q 18.609375 31.296875 18.609375 23.390625 
Q 18.609375 15.53125 22.484375 10.953125 
Q 26.375 6.390625 33.015625 6.390625 
Q 39.65625 6.390625 43.53125 10.953125 
Q 47.40625 15.53125 47.40625 23.390625 
Q 47.40625 31.296875 43.53125 35.828125 
Q 39.65625 40.375 33.015625 40.375 
z
M 52.59375 71.296875 
L 52.59375 62.3125 
Q 48.875 64.0625 45.09375 64.984375 
Q 41.3125 65.921875 37.59375 65.921875 
Q 27.828125 65.921875 22.671875 59.328125 
Q 17.53125 52.734375 16.796875 39.40625 
Q 19.671875 43.65625 24.015625 45.921875 
Q 28.375 48.1875 33.59375 48.1875 
Q 44.578125 48.1875 50.953125 41.515625 
Q 57.328125 34.859375 57.328125 23.390625 
Q 57.328125 12.15625 50.6875 5.359375 
Q 44.046875 -1.421875 33.015625 -1.421875 
Q 20.359375 -1.421875 13.671875 8.265625 
Q 6.984375 17.96875 6.984375 36.375 
Q 6.984375 53.65625 15.1875 63.9375 
Q 23.390625 74.21875 37.203125 74.21875 
Q 40.921875 74.21875 44.703125 73.484375 
Q 48.484375 72.75 52.59375 71.296875 
z
" id="DejaVuSans-54"/>
    </defs>
    <g transform="translate(203.19676 142.890689)scale(0.1 -0.1)">
     <use xlink:href="#DejaVuSans-51"/>
     <use x="63.623047" xlink:href="#DejaVuSans-56"/>
     <use x="127.246094" xlink:href="#DejaVuSans-54"/>
    </g>
   </g>
   <g id="text_6">
    <!-- 21 -->
    <defs>
     <path d="M 12.40625 8.296875 
L 28.515625 8.296875 
L 28.515625 63.921875 
L 10.984375 60.40625 
L 10.984375 69.390625 
L 28.421875 72.90625 
L 38.28125 72.90625 
L 38.28125 8.296875 
L 54.390625 8.296875 
L 54.390625 0 
L 12.40625 0 
z
" id="DejaVuSans-49"/>
    </defs>
    <g transform="translate(273.431697 132.800488)scale(0.1 -0.1)">
     <use xlink:href="#DejaVuSans-50"/>
     <use x="63.623047" xlink:href="#DejaVuSans-49"/>
    </g>
   </g>
   <g id="text_7">
    <!-- 144 -->
    <g transform="translate(230.467129 128.14734)scale(0.1 -0.1)">
     <use xlink:href="#DejaVuSans-49"/>
     <use x="63.623047" xlink:href="#DejaVuSans-52"/>
     <use x="127.246094" xlink:href="#DejaVuSans-52"/>
    </g>
   </g>
   <g id="text_8">
    <!-- Pat 31 -->
    <defs>
     <path d="M 19.671875 64.796875 
L 19.671875 37.40625 
L 32.078125 37.40625 
Q 38.96875 37.40625 42.71875 40.96875 
Q 46.484375 44.53125 46.484375 51.125 
Q 46.484375 57.671875 42.71875 61.234375 
Q 38.96875 64.796875 32.078125 64.796875 
z
M 9.8125 72.90625 
L 32.078125 72.90625 
Q 44.34375 72.90625 50.609375 67.359375 
Q 56.890625 61.8125 56.890625 51.125 
Q 56.890625 40.328125 50.609375 34.8125 
Q 44.34375 29.296875 32.078125 29.296875 
L 19.671875 29.296875 
L 19.671875 0 
L 9.8125 0 
z
" id="DejaVuSans-80"/>
     <path d="M 34.28125 27.484375 
Q 23.390625 27.484375 19.1875 25 
Q 14.984375 22.515625 14.984375 16.5 
Q 14.984375 11.71875 18.140625 8.90625 
Q 21.296875 6.109375 26.703125 6.109375 
Q 34.1875 6.109375 38.703125 11.40625 
Q 43.21875 16.703125 43.21875 25.484375 
L 43.21875 27.484375 
z
M 52.203125 31.203125 
L 52.203125 0 
L 43.21875 0 
L 43.21875 8.296875 
Q 40.140625 3.328125 35.546875 0.953125 
Q 30.953125 -1.421875 24.3125 -1.421875 
Q 15.921875 -1.421875 10.953125 3.296875 
Q 6 8.015625 6 15.921875 
Q 6 25.140625 12.171875 29.828125 
Q 18.359375 34.515625 30.609375 34.515625 
L 43.21875 34.515625 
L 43.21875 35.40625 
Q 43.21875 41.609375 39.140625 45 
Q 35.0625 48.390625 27.6875 48.390625 
Q 23 48.390625 18.546875 47.265625 
Q 14.109375 46.140625 10.015625 43.890625 
L 10.015625 52.203125 
Q 14.9375 54.109375 19.578125 55.046875 
Q 24.21875 56 28.609375 56 
Q 40.484375 56 46.34375 49.84375 
Q 52.203125 43.703125 52.203125 31.203125 
z
" id="DejaVuSans-97"/>
     <path d="M 18.3125 70.21875 
L 18.3125 54.6875 
L 36.8125 54.6875 
L 36.8125 47.703125 
L 18.3125 47.703125 
L 18.3125 18.015625 
Q 18.3125 11.328125 20.140625 9.421875 
Q 21.96875 7.515625 27.59375 7.515625 
L 36.8125 7.515625 
L 36.8125 0 
L 27.59375 0 
Q 17.1875 0 13.234375 3.875 
Q 9.28125 7.765625 9.28125 18.015625 
L 9.28125 47.703125 
L 2.6875 47.703125 
L 2.6875 54.6875 
L 9.28125 54.6875 
L 9.28125 70.21875 
z
" id="DejaVuSans-116"/>
     <path id="DejaVuSans-32"/>
    </defs>
    <g transform="translate(135.304414 49.789943)scale(0.12 -0.12)">
     <use xlink:href="#DejaVuSans-80"/>
     <use x="55.802734" xlink:href="#DejaVuSans-97"/>
     <use x="117.082031" xlink:href="#DejaVuSans-116"/>
     <use x="156.291016" xlink:href="#DejaVuSans-32"/>
     <use x="188.078125" xlink:href="#DejaVuSans-51"/>
     <use x="251.701172" xlink:href="#DejaVuSans-49"/>
    </g>
   </g>
   <g id="text_9">
    <!-- Pat 34 -->
    <g transform="translate(274.040989 85.487335)scale(0.12 -0.12)">
     <use xlink:href="#DejaVuSans-80"/>
     <use x="55.802734" xlink:href="#DejaVuSans-97"/>
     <use x="117.082031" xlink:href="#DejaVuSans-116"/>
     <use x="156.291016" xlink:href="#DejaVuSans-32"/>
     <use x="188.078125" xlink:href="#DejaVuSans-51"/>
     <use x="251.701172" xlink:href="#DejaVuSans-52"/>
    </g>
   </g>
   <g id="text_10">
    <!-- Pat 39 -->
    <defs>
     <path d="M 10.984375 1.515625 
L 10.984375 10.5 
Q 14.703125 8.734375 18.5 7.8125 
Q 22.3125 6.890625 25.984375 6.890625 
Q 35.75 6.890625 40.890625 13.453125 
Q 46.046875 20.015625 46.78125 33.40625 
Q 43.953125 29.203125 39.59375 26.953125 
Q 35.25 24.703125 29.984375 24.703125 
Q 19.046875 24.703125 12.671875 31.3125 
Q 6.296875 37.9375 6.296875 49.421875 
Q 6.296875 60.640625 12.9375 67.421875 
Q 19.578125 74.21875 30.609375 74.21875 
Q 43.265625 74.21875 49.921875 64.515625 
Q 56.59375 54.828125 56.59375 36.375 
Q 56.59375 19.140625 48.40625 8.859375 
Q 40.234375 -1.421875 26.421875 -1.421875 
Q 22.703125 -1.421875 18.890625 -0.6875 
Q 15.09375 0.046875 10.984375 1.515625 
z
M 30.609375 32.421875 
Q 37.25 32.421875 41.125 36.953125 
Q 45.015625 41.5 45.015625 49.421875 
Q 45.015625 57.28125 41.125 61.84375 
Q 37.25 66.40625 30.609375 66.40625 
Q 23.96875 66.40625 20.09375 61.84375 
Q 16.21875 57.28125 16.21875 49.421875 
Q 16.21875 41.5 20.09375 36.953125 
Q 23.96875 32.421875 30.609375 32.421875 
z
" id="DejaVuSans-57"/>
    </defs>
    <g transform="translate(210.73536 253.261802)scale(0.12 -0.12)">
     <use xlink:href="#DejaVuSans-80"/>
     <use x="55.802734" xlink:href="#DejaVuSans-97"/>
     <use x="117.082031" xlink:href="#DejaVuSans-116"/>
     <use x="156.291016" xlink:href="#DejaVuSans-32"/>
     <use x="188.078125" xlink:href="#DejaVuSans-51"/>
     <use x="251.701172" xlink:href="#DejaVuSans-57"/>
    </g>
   </g>
  </g>
 </g>
 <defs>
  <clipPath id="pc0e4d78ab0">
   <rect height="217.44" width="194.440492" x="124.179754" y="34.56"/>
  </clipPath>
 </defs>
</svg>
