<?xml version="1.0" encoding="utf-8" standalone="no"?>
<!DOCTYPE svg PUBLIC "-//W3C//DTD SVG 1.1//EN"
  "http://www.w3.org/Graphics/SVG/1.1/DTD/svg11.dtd">
<!-- Created with matplotlib (https://matplotlib.org/) -->
<svg height="288pt" version="1.1" viewBox="0 0 432 288" width="432pt" xmlns="http://www.w3.org/2000/svg" xmlns:xlink="http://www.w3.org/1999/xlink">
 <defs>
  <style type="text/css">
*{stroke-linecap:butt;stroke-linejoin:round;}
  </style>
 </defs>
 <g id="figure_1">
  <g id="patch_1">
   <path d="M 0 288 
L 432 288 
L 432 0 
L 0 0 
z
" style="fill:#ffffff;"/>
  </g>
  <g id="axes_1">
   <g id="patch_2">
    <path d="M 395.352 143.28 
C 395.352 108.800817 385.100775 75.087855 365.90702 46.444989 
C 346.713265 17.802122 319.430055 -4.497605 287.540427 -17.607359 
L 221.4 143.28 
L 395.352 143.28 
z
" style="fill:#8da0cb;stroke:#afabb3;stroke-linejoin:miter;stroke-width:0.5;"/>
   </g>
   <g id="patch_3">
    <path d="M 287.540427 -17.607359 
C 266.835101 -26.119271 244.679969 -30.554705 222.293591 -30.669705 
C 199.907213 -30.784705 177.707681 -26.577124 156.915998 -18.278385 
L 221.4 143.28 
L 287.540427 -17.607359 
z
" style="fill:#ffd92f;stroke:#afabb3;stroke-linejoin:miter;stroke-width:0.5;"/>
   </g>
   <g id="patch_4">
    <path d="M 156.915998 -18.278385 
C 141.627953 -12.176354 127.28315 -3.935067 114.311327 6.198585 
C 101.339503 16.332237 89.871501 28.25604 80.250874 41.612786 
L 221.4 143.28 
L 156.915998 -18.278385 
z
" style="fill:#e78ac3;stroke:#afabb3;stroke-linejoin:miter;stroke-width:0.5;"/>
   </g>
   <g id="patch_5">
    <path d="M 80.250874 41.612786 
C 71.32984 53.998255 64.077674 67.50422 58.681416 81.782353 
C 53.285157 96.060485 49.791599 110.986974 48.290842 126.176852 
L 221.4 143.28 
L 80.250874 41.612786 
z
" style="fill:#a6d854;stroke:#afabb3;stroke-linejoin:miter;stroke-width:0.5;"/>
   </g>
   <g id="patch_6">
    <path d="M 48.290842 126.176852 
C 47.111197 138.1166 47.16998 150.146421 48.466252 162.074071 
C 49.762523 174.00172 52.289341 185.76332 56.006325 197.170913 
L 221.4 143.28 
L 48.290842 126.176852 
z
" style="fill:#66c2a5;stroke:#afabb3;stroke-linejoin:miter;stroke-width:0.5;"/>
   </g>
   <g id="patch_7">
    <path d="M 56.006325 197.170913 
C 59.651097 208.356886 64.421287 219.144302 70.243583 229.367374 
C 76.06588 239.590447 82.910303 249.196535 90.671663 258.038008 
L 221.4 143.28 
L 56.006325 197.170913 
z
" style="fill:#69b584;stroke:#afabb3;stroke-linejoin:miter;stroke-width:0.5;"/>
   </g>
   <g id="patch_8">
    <path d="M 90.671663 258.038008 
C 95.993798 264.100799 101.731254 269.786016 107.842469 275.052476 
C 113.953685 280.318937 120.423868 285.153894 127.206152 289.522324 
L 221.4 143.28 
L 90.671663 258.038008 
z
" style="fill:#a7e8e7;stroke:#afabb3;stroke-linejoin:miter;stroke-width:0.5;"/>
   </g>
   <g id="patch_9">
    <path d="M 127.206152 289.522324 
C 132.007778 292.615024 136.958808 295.469368 142.041246 298.074982 
C 147.123685 300.680596 152.331367 303.03432 157.645367 305.127598 
L 221.4 143.28 
L 127.206152 289.522324 
z
" style="fill:#fc8d62;stroke:#afabb3;stroke-linejoin:miter;stroke-width:0.5;"/>
   </g>
   <g id="patch_10">
    <path d="M 157.645367 305.127598 
C 162.891732 307.194234 168.235482 309.004553 173.657686 310.552143 
C 179.079889 312.099732 184.574137 313.382761 190.120963 314.396686 
L 221.4 143.28 
L 157.645367 305.127598 
z
" style="fill:#e8cea7;stroke:#afabb3;stroke-linejoin:miter;stroke-width:0.5;"/>
   </g>
   <g id="patch_11">
    <path d="M 190.120963 314.396686 
C 194.938464 315.277294 199.791004 315.954067 204.665614 316.425195 
C 209.540223 316.896323 214.432555 317.161387 219.329532 317.219678 
L 221.4 143.28 
L 190.120963 314.396686 
z
" style="fill:#f5b5bf;stroke:#afabb3;stroke-linejoin:miter;stroke-width:0.5;"/>
   </g>
   <g id="patch_12">
    <path d="M 219.329532 317.219678 
C 242.345277 317.493643 265.188165 313.196728 286.531233 304.578546 
C 307.8743 295.960363 327.296107 283.191088 343.668424 267.012497 
C 360.040742 250.833905 373.040282 231.565461 381.911891 210.326484 
C 390.7835 189.087507 395.351999 166.297382 395.352 143.280006 
L 221.4 143.28 
L 219.329532 317.219678 
z
" style="fill:#b8b4b4;stroke:#afabb3;stroke-linejoin:miter;stroke-width:0.5;"/>
   </g>
   <g id="matplotlib.axis_1"/>
   <g id="matplotlib.axis_2"/>
   <g id="text_1">
    <!-- FIBA -->
    <defs>
     <path d="M 9.8125 72.90625 
L 51.703125 72.90625 
L 51.703125 64.59375 
L 19.671875 64.59375 
L 19.671875 43.109375 
L 48.578125 43.109375 
L 48.578125 34.8125 
L 19.671875 34.8125 
L 19.671875 0 
L 9.8125 0 
z
" id="DejaVuSans-70"/>
     <path d="M 9.8125 72.90625 
L 19.671875 72.90625 
L 19.671875 0 
L 9.8125 0 
z
" id="DejaVuSans-73"/>
     <path d="M 19.671875 34.8125 
L 19.671875 8.109375 
L 35.5 8.109375 
Q 43.453125 8.109375 47.28125 11.40625 
Q 51.125 14.703125 51.125 21.484375 
Q 51.125 28.328125 47.28125 31.5625 
Q 43.453125 34.8125 35.5 34.8125 
z
M 19.671875 64.796875 
L 19.671875 42.828125 
L 34.28125 42.828125 
Q 41.5 42.828125 45.03125 45.53125 
Q 48.578125 48.25 48.578125 53.8125 
Q 48.578125 59.328125 45.03125 62.0625 
Q 41.5 64.796875 34.28125 64.796875 
z
M 9.8125 72.90625 
L 35.015625 72.90625 
Q 46.296875 72.90625 52.390625 68.21875 
Q 58.5 63.53125 58.5 54.890625 
Q 58.5 48.1875 55.375 44.234375 
Q 52.25 40.28125 46.1875 39.3125 
Q 53.46875 37.75 57.5 32.78125 
Q 61.53125 27.828125 61.53125 20.40625 
Q 61.53125 10.640625 54.890625 5.3125 
Q 48.25 0 35.984375 0 
L 9.8125 0 
z
" id="DejaVuSans-66"/>
     <path d="M 34.1875 63.1875 
L 20.796875 26.90625 
L 47.609375 26.90625 
z
M 28.609375 72.90625 
L 39.796875 72.90625 
L 67.578125 0 
L 57.328125 0 
L 50.6875 18.703125 
L 17.828125 18.703125 
L 11.1875 0 
L 0.78125 0 
z
" id="DejaVuSans-65"/>
    </defs>
    <g transform="translate(384.587595 35.03383)rotate(-33.826274)scale(0.1 -0.1)">
     <use xlink:href="#DejaVuSans-70"/>
     <use x="57.519531" xlink:href="#DejaVuSans-73"/>
     <use x="87.011719" xlink:href="#DejaVuSans-66"/>
     <use x="155.615234" xlink:href="#DejaVuSans-65"/>
    </g>
   </g>
   <g id="text_2">
    <!-- APOA4 -->
    <defs>
     <path d="M 19.671875 64.796875 
L 19.671875 37.40625 
L 32.078125 37.40625 
Q 38.96875 37.40625 42.71875 40.96875 
Q 46.484375 44.53125 46.484375 51.125 
Q 46.484375 57.671875 42.71875 61.234375 
Q 38.96875 64.796875 32.078125 64.796875 
z
M 9.8125 72.90625 
L 32.078125 72.90625 
Q 44.34375 72.90625 50.609375 67.359375 
Q 56.890625 61.8125 56.890625 51.125 
Q 56.890625 40.328125 50.609375 34.8125 
Q 44.34375 29.296875 32.078125 29.296875 
L 19.671875 29.296875 
L 19.671875 0 
L 9.8125 0 
z
" id="DejaVuSans-80"/>
     <path d="M 39.40625 66.21875 
Q 28.65625 66.21875 22.328125 58.203125 
Q 16.015625 50.203125 16.015625 36.375 
Q 16.015625 22.609375 22.328125 14.59375 
Q 28.65625 6.59375 39.40625 6.59375 
Q 50.140625 6.59375 56.421875 14.59375 
Q 62.703125 22.609375 62.703125 36.375 
Q 62.703125 50.203125 56.421875 58.203125 
Q 50.140625 66.21875 39.40625 66.21875 
z
M 39.40625 74.21875 
Q 54.734375 74.21875 63.90625 63.9375 
Q 73.09375 53.65625 73.09375 36.375 
Q 73.09375 19.140625 63.90625 8.859375 
Q 54.734375 -1.421875 39.40625 -1.421875 
Q 24.03125 -1.421875 14.8125 8.828125 
Q 5.609375 19.09375 5.609375 36.375 
Q 5.609375 53.65625 14.8125 63.9375 
Q 24.03125 74.21875 39.40625 74.21875 
z
" id="DejaVuSans-79"/>
     <path d="M 37.796875 64.3125 
L 12.890625 25.390625 
L 37.796875 25.390625 
z
M 35.203125 72.90625 
L 47.609375 72.90625 
L 47.609375 25.390625 
L 58.015625 25.390625 
L 58.015625 17.1875 
L 47.609375 17.1875 
L 47.609375 0 
L 37.796875 0 
L 37.796875 17.1875 
L 4.890625 17.1875 
L 4.890625 26.703125 
z
" id="DejaVuSans-52"/>
    </defs>
    <g transform="translate(229.981287 -48.075359)rotate(-89.70567)scale(0.1 -0.1)">
     <use xlink:href="#DejaVuSans-65"/>
     <use x="68.408203" xlink:href="#DejaVuSans-80"/>
     <use x="128.710938" xlink:href="#DejaVuSans-79"/>
     <use x="207.40625" xlink:href="#DejaVuSans-65"/>
     <use x="275.814453" xlink:href="#DejaVuSans-52"/>
    </g>
   </g>
   <g id="text_3">
    <!-- A1AT -->
    <defs>
     <path d="M 12.40625 8.296875 
L 28.515625 8.296875 
L 28.515625 63.921875 
L 10.984375 60.40625 
L 10.984375 69.390625 
L 28.421875 72.90625 
L 38.28125 72.90625 
L 38.28125 8.296875 
L 54.390625 8.296875 
L 54.390625 0 
L 12.40625 0 
z
" id="DejaVuSans-49"/>
     <path d="M -0.296875 72.90625 
L 61.375 72.90625 
L 61.375 64.59375 
L 35.5 64.59375 
L 35.5 0 
L 25.59375 0 
L 25.59375 64.59375 
L -0.296875 64.59375 
z
" id="DejaVuSans-84"/>
    </defs>
    <g transform="translate(81.521831 -29.389758)rotate(-307.997128)scale(0.1 -0.1)">
     <use xlink:href="#DejaVuSans-65"/>
     <use x="68.408203" xlink:href="#DejaVuSans-49"/>
     <use x="132.03125" xlink:href="#DejaVuSans-65"/>
     <use x="200.330078" xlink:href="#DejaVuSans-84"/>
    </g>
   </g>
   <g id="text_4">
    <!-- APOB -->
    <g transform="translate(13.902685 63.928606)rotate(-339.296482)scale(0.1 -0.1)">
     <use xlink:href="#DejaVuSans-65"/>
     <use x="68.408203" xlink:href="#DejaVuSans-80"/>
     <use x="128.710938" xlink:href="#DejaVuSans-79"/>
     <use x="207.421875" xlink:href="#DejaVuSans-66"/>
    </g>
   </g>
   <g id="text_5">
    <!-- ITIH4 -->
    <defs>
     <path d="M 9.8125 72.90625 
L 19.671875 72.90625 
L 19.671875 43.015625 
L 55.515625 43.015625 
L 55.515625 72.90625 
L 65.375 72.90625 
L 65.375 0 
L 55.515625 0 
L 55.515625 34.71875 
L 19.671875 34.71875 
L 19.671875 0 
L 9.8125 0 
z
" id="DejaVuSans-72"/>
    </defs>
    <g transform="translate(5.209114 174.304704)rotate(-6.202441)scale(0.1 -0.1)">
     <use xlink:href="#DejaVuSans-73"/>
     <use x="29.492188" xlink:href="#DejaVuSans-84"/>
     <use x="90.576172" xlink:href="#DejaVuSans-73"/>
     <use x="120.068359" xlink:href="#DejaVuSans-72"/>
     <use x="195.263672" xlink:href="#DejaVuSans-52"/>
    </g>
   </g>
   <g id="text_6">
    <!-- APOA1 -->
    <g transform="translate(24.603139 261.377285)rotate(-29.662599)scale(0.1 -0.1)">
     <use xlink:href="#DejaVuSans-65"/>
     <use x="68.408203" xlink:href="#DejaVuSans-80"/>
     <use x="128.710938" xlink:href="#DejaVuSans-79"/>
     <use x="207.40625" xlink:href="#DejaVuSans-65"/>
     <use x="275.814453" xlink:href="#DejaVuSans-49"/>
    </g>
   </g>
   <g id="text_7">
    <!-- G3P -->
    <defs>
     <path d="M 59.515625 10.40625 
L 59.515625 29.984375 
L 43.40625 29.984375 
L 43.40625 38.09375 
L 69.28125 38.09375 
L 69.28125 6.78125 
Q 63.578125 2.734375 56.6875 0.65625 
Q 49.8125 -1.421875 42 -1.421875 
Q 24.90625 -1.421875 15.25 8.5625 
Q 5.609375 18.5625 5.609375 36.375 
Q 5.609375 54.25 15.25 64.234375 
Q 24.90625 74.21875 42 74.21875 
Q 49.125 74.21875 55.546875 72.453125 
Q 61.96875 70.703125 67.390625 67.28125 
L 67.390625 56.78125 
Q 61.921875 61.421875 55.765625 63.765625 
Q 49.609375 66.109375 42.828125 66.109375 
Q 29.4375 66.109375 22.71875 58.640625 
Q 16.015625 51.171875 16.015625 36.375 
Q 16.015625 21.625 22.71875 14.15625 
Q 29.4375 6.6875 42.828125 6.6875 
Q 48.046875 6.6875 52.140625 7.59375 
Q 56.25 8.5 59.515625 10.40625 
z
" id="DejaVuSans-71"/>
     <path d="M 40.578125 39.3125 
Q 47.65625 37.796875 51.625 33 
Q 55.609375 28.21875 55.609375 21.1875 
Q 55.609375 10.40625 48.1875 4.484375 
Q 40.765625 -1.421875 27.09375 -1.421875 
Q 22.515625 -1.421875 17.65625 -0.515625 
Q 12.796875 0.390625 7.625 2.203125 
L 7.625 11.71875 
Q 11.71875 9.328125 16.59375 8.109375 
Q 21.484375 6.890625 26.8125 6.890625 
Q 36.078125 6.890625 40.9375 10.546875 
Q 45.796875 14.203125 45.796875 21.1875 
Q 45.796875 27.640625 41.28125 31.265625 
Q 36.765625 34.90625 28.71875 34.90625 
L 20.21875 34.90625 
L 20.21875 43.015625 
L 29.109375 43.015625 
Q 36.375 43.015625 40.234375 45.921875 
Q 44.09375 48.828125 44.09375 54.296875 
Q 44.09375 59.90625 40.109375 62.90625 
Q 36.140625 65.921875 28.71875 65.921875 
Q 24.65625 65.921875 20.015625 65.03125 
Q 15.375 64.15625 9.8125 62.3125 
L 9.8125 71.09375 
Q 15.4375 72.65625 20.34375 73.4375 
Q 25.25 74.21875 29.59375 74.21875 
Q 40.828125 74.21875 47.359375 69.109375 
Q 53.90625 64.015625 53.90625 55.328125 
Q 53.90625 49.265625 50.4375 45.09375 
Q 46.96875 40.921875 40.578125 39.3125 
z
" id="DejaVuSans-51"/>
    </defs>
    <g transform="translate(81.763314 308.447024)rotate(-49.246232)scale(0.1 -0.1)">
     <use xlink:href="#DejaVuSans-71"/>
     <use x="77.490234" xlink:href="#DejaVuSans-51"/>
     <use x="141.113281" xlink:href="#DejaVuSans-80"/>
    </g>
   </g>
   <g id="text_8">
    <!-- APOC2 -->
    <defs>
     <path d="M 64.40625 67.28125 
L 64.40625 56.890625 
Q 59.421875 61.53125 53.78125 63.8125 
Q 48.140625 66.109375 41.796875 66.109375 
Q 29.296875 66.109375 22.65625 58.46875 
Q 16.015625 50.828125 16.015625 36.375 
Q 16.015625 21.96875 22.65625 14.328125 
Q 29.296875 6.6875 41.796875 6.6875 
Q 48.140625 6.6875 53.78125 8.984375 
Q 59.421875 11.28125 64.40625 15.921875 
L 64.40625 5.609375 
Q 59.234375 2.09375 53.4375 0.328125 
Q 47.65625 -1.421875 41.21875 -1.421875 
Q 24.65625 -1.421875 15.125 8.703125 
Q 5.609375 18.84375 5.609375 36.375 
Q 5.609375 53.953125 15.125 64.078125 
Q 24.65625 74.21875 41.21875 74.21875 
Q 47.75 74.21875 53.53125 72.484375 
Q 59.328125 70.75 64.40625 67.28125 
z
" id="DejaVuSans-67"/>
     <path d="M 19.1875 8.296875 
L 53.609375 8.296875 
L 53.609375 0 
L 7.328125 0 
L 7.328125 8.296875 
Q 12.9375 14.109375 22.625 23.890625 
Q 32.328125 33.6875 34.8125 36.53125 
Q 39.546875 41.84375 41.421875 45.53125 
Q 43.3125 49.21875 43.3125 52.78125 
Q 43.3125 58.59375 39.234375 62.25 
Q 35.15625 65.921875 28.609375 65.921875 
Q 23.96875 65.921875 18.8125 64.3125 
Q 13.671875 62.703125 7.8125 59.421875 
L 7.8125 69.390625 
Q 13.765625 71.78125 18.9375 73 
Q 24.125 74.21875 28.421875 74.21875 
Q 39.75 74.21875 46.484375 68.546875 
Q 53.21875 62.890625 53.21875 53.421875 
Q 53.21875 48.921875 51.53125 44.890625 
Q 49.859375 40.875 45.40625 35.40625 
Q 44.1875 33.984375 37.640625 27.21875 
Q 31.109375 20.453125 19.1875 8.296875 
z
" id="DejaVuSans-50"/>
    </defs>
    <g transform="translate(116.703635 347.354474)rotate(-62.857144)scale(0.1 -0.1)">
     <use xlink:href="#DejaVuSans-65"/>
     <use x="68.408203" xlink:href="#DejaVuSans-80"/>
     <use x="128.710938" xlink:href="#DejaVuSans-79"/>
     <use x="207.421875" xlink:href="#DejaVuSans-67"/>
     <use x="277.246094" xlink:href="#DejaVuSans-50"/>
    </g>
   </g>
   <g id="text_9">
    <!-- APOA2 -->
    <g transform="translate(157.567534 362.00509)rotate(-74.070353)scale(0.1 -0.1)">
     <use xlink:href="#DejaVuSans-65"/>
     <use x="68.408203" xlink:href="#DejaVuSans-80"/>
     <use x="128.710938" xlink:href="#DejaVuSans-79"/>
     <use x="207.40625" xlink:href="#DejaVuSans-65"/>
     <use x="275.814453" xlink:href="#DejaVuSans-50"/>
    </g>
   </g>
   <g id="text_10">
    <!-- KNG1 -->
    <defs>
     <path d="M 9.8125 72.90625 
L 19.671875 72.90625 
L 19.671875 42.09375 
L 52.390625 72.90625 
L 65.09375 72.90625 
L 28.90625 38.921875 
L 67.671875 0 
L 54.6875 0 
L 19.671875 35.109375 
L 19.671875 0 
L 9.8125 0 
z
" id="DejaVuSans-75"/>
     <path d="M 9.8125 72.90625 
L 23.09375 72.90625 
L 55.421875 11.921875 
L 55.421875 72.90625 
L 64.984375 72.90625 
L 64.984375 0 
L 51.703125 0 
L 19.390625 60.984375 
L 19.390625 0 
L 9.8125 0 
z
" id="DejaVuSans-78"/>
    </defs>
    <g transform="translate(198.21407 362.490131)rotate(-84.479541)scale(0.1 -0.1)">
     <use xlink:href="#DejaVuSans-75"/>
     <use x="65.576172" xlink:href="#DejaVuSans-78"/>
     <use x="140.380859" xlink:href="#DejaVuSans-71"/>
     <use x="217.871094" xlink:href="#DejaVuSans-49"/>
    </g>
   </g>
   <g id="text_11">
    <!-- Other -->
    <defs>
     <path d="M 18.3125 70.21875 
L 18.3125 54.6875 
L 36.8125 54.6875 
L 36.8125 47.703125 
L 18.3125 47.703125 
L 18.3125 18.015625 
Q 18.3125 11.328125 20.140625 9.421875 
Q 21.96875 7.515625 27.59375 7.515625 
L 36.8125 7.515625 
L 36.8125 0 
L 27.59375 0 
Q 17.1875 0 13.234375 3.875 
Q 9.28125 7.765625 9.28125 18.015625 
L 9.28125 47.703125 
L 2.6875 47.703125 
L 2.6875 54.6875 
L 9.28125 54.6875 
L 9.28125 70.21875 
z
" id="DejaVuSans-116"/>
     <path d="M 54.890625 33.015625 
L 54.890625 0 
L 45.90625 0 
L 45.90625 32.71875 
Q 45.90625 40.484375 42.875 44.328125 
Q 39.84375 48.1875 33.796875 48.1875 
Q 26.515625 48.1875 22.3125 43.546875 
Q 18.109375 38.921875 18.109375 30.90625 
L 18.109375 0 
L 9.078125 0 
L 9.078125 75.984375 
L 18.109375 75.984375 
L 18.109375 46.1875 
Q 21.34375 51.125 25.703125 53.5625 
Q 30.078125 56 35.796875 56 
Q 45.21875 56 50.046875 50.171875 
Q 54.890625 44.34375 54.890625 33.015625 
z
" id="DejaVuSans-104"/>
     <path d="M 56.203125 29.59375 
L 56.203125 25.203125 
L 14.890625 25.203125 
Q 15.484375 15.921875 20.484375 11.0625 
Q 25.484375 6.203125 34.421875 6.203125 
Q 39.59375 6.203125 44.453125 7.46875 
Q 49.3125 8.734375 54.109375 11.28125 
L 54.109375 2.78125 
Q 49.265625 0.734375 44.1875 -0.34375 
Q 39.109375 -1.421875 33.890625 -1.421875 
Q 20.796875 -1.421875 13.15625 6.1875 
Q 5.515625 13.8125 5.515625 26.8125 
Q 5.515625 40.234375 12.765625 48.109375 
Q 20.015625 56 32.328125 56 
Q 43.359375 56 49.78125 48.890625 
Q 56.203125 41.796875 56.203125 29.59375 
z
M 47.21875 32.234375 
Q 47.125 39.59375 43.09375 43.984375 
Q 39.0625 48.390625 32.421875 48.390625 
Q 24.90625 48.390625 20.390625 44.140625 
Q 15.875 39.890625 15.1875 32.171875 
z
" id="DejaVuSans-101"/>
     <path d="M 41.109375 46.296875 
Q 39.59375 47.171875 37.8125 47.578125 
Q 36.03125 48 33.890625 48 
Q 26.265625 48 22.1875 43.046875 
Q 18.109375 38.09375 18.109375 28.8125 
L 18.109375 0 
L 9.078125 0 
L 9.078125 54.6875 
L 18.109375 54.6875 
L 18.109375 46.1875 
Q 20.953125 51.171875 25.484375 53.578125 
Q 30.03125 56 36.53125 56 
Q 37.453125 56 38.578125 55.875 
Q 39.703125 55.765625 41.0625 55.515625 
z
" id="DejaVuSans-114"/>
    </defs>
    <g transform="translate(357.374554 284.726581)rotate(-314.659009)scale(0.1 -0.1)">
     <use xlink:href="#DejaVuSans-79"/>
     <use x="78.710938" xlink:href="#DejaVuSans-116"/>
     <use x="117.919922" xlink:href="#DejaVuSans-104"/>
     <use x="181.298828" xlink:href="#DejaVuSans-101"/>
     <use x="242.822266" xlink:href="#DejaVuSans-114"/>
    </g>
   </g>
  </g>
 </g>
</svg>
