<?xml version="1.0" encoding="utf-8" standalone="no"?>
<!DOCTYPE svg PUBLIC "-//W3C//DTD SVG 1.1//EN"
  "http://www.w3.org/Graphics/SVG/1.1/DTD/svg11.dtd">
<!-- Created with matplotlib (https://matplotlib.org/) -->
<svg height="720pt" version="1.1" viewBox="0 0 1440 720" width="1440pt" xmlns="http://www.w3.org/2000/svg" xmlns:xlink="http://www.w3.org/1999/xlink">
 <defs>
  <style type="text/css">
*{stroke-linecap:butt;stroke-linejoin:round;}
  </style>
 </defs>
 <g id="figure_1">
  <g id="patch_1">
   <path d="M 0 720 
L 1440 720 
L 1440 0 
L 0 0 
z
" style="fill:none;"/>
  </g>
  <g id="axes_1">
   <g id="patch_2">
    <path d="M 497.589305 166.341176 
C 497.589305 161.975339 497.142245 157.620954 496.255124 153.346197 
C 495.368004 149.07144 494.045477 144.898736 492.30825 140.893418 
L 433.636364 166.341176 
L 497.589305 166.341176 
z
" style="fill:#e4f8c7;stroke:#afabb3;stroke-linejoin:miter;stroke-width:0.5;"/>
   </g>
   <g id="patch_3">
    <path d="M 492.30825 140.893418 
C 489.852371 135.231188 486.58971 129.954174 482.621892 125.226742 
C 478.654074 120.499311 474.022727 116.37106 468.872107 112.970575 
L 433.636364 166.341176 
L 492.30825 140.893418 
z
" style="fill:#e4f8c7;stroke:#afabb3;stroke-linejoin:miter;stroke-width:0.5;"/>
   </g>
   <g id="patch_4">
    <path d="M 468.872107 112.970575 
C 464.849949 110.315111 460.540468 108.122819 456.025808 106.435489 
C 451.511149 104.748158 446.820182 103.576578 442.042325 102.943081 
L 433.636364 166.341176 
L 468.872107 112.970575 
z
" style="fill:#e4f8c7;stroke:#afabb3;stroke-linejoin:miter;stroke-width:0.5;"/>
   </g>
   <g id="patch_5">
    <path d="M 442.042325 102.943081 
C 434.685338 101.967617 427.214389 102.280161 419.964582 103.866693 
C 412.714775 105.453225 405.79615 108.289665 399.519037 112.248786 
L 433.636364 166.341176 
L 442.042325 102.943081 
z
" style="fill:#e4f8c7;stroke:#afabb3;stroke-linejoin:miter;stroke-width:0.5;"/>
   </g>
   <g id="patch_6">
    <path d="M 399.519037 112.248786 
C 397.454228 113.551109 395.46568 114.970591 393.563158 116.500261 
C 391.660636 118.029931 389.847259 119.667282 388.131932 121.404272 
L 433.636364 166.341176 
L 399.519037 112.248786 
z
" style="fill:#e4f8c7;stroke:#afabb3;stroke-linejoin:miter;stroke-width:0.5;"/>
   </g>
   <g id="patch_7">
    <path d="M 388.131932 121.404272 
C 384.741973 124.837045 381.751317 128.642418 379.217086 132.747711 
C 376.682855 136.853003 374.621288 141.231911 373.071758 145.800796 
L 433.636364 166.341176 
L 388.131932 121.404272 
z
" style="fill:#e4f8c7;stroke:#afabb3;stroke-linejoin:miter;stroke-width:0.5;"/>
   </g>
   <g id="patch_8">
    <path d="M 373.071758 145.800796 
C 371.616029 150.093104 370.62072 154.528032 370.10262 159.030768 
C 369.58452 163.533504 369.546558 168.078588 369.989376 172.58935 
L 433.636364 166.341176 
L 373.071758 145.800796 
z
" style="fill:#e4f8c7;stroke:#afabb3;stroke-linejoin:miter;stroke-width:0.5;"/>
   </g>
   <g id="patch_9">
    <path d="M 369.989376 172.58935 
C 370.018685 172.887908 370.050095 173.186256 370.083602 173.484371 
C 370.11711 173.782487 370.152715 174.080364 370.190414 174.377978 
L 433.636364 166.341176 
L 369.989376 172.58935 
z
" style="fill:#e4f8c7;stroke:#afabb3;stroke-linejoin:miter;stroke-width:0.5;"/>
   </g>
   <g id="patch_10">
    <path d="M 370.190414 174.377978 
C 370.35895 175.708471 370.569296 177.033333 370.821139 178.3506 
C 371.072983 179.667866 371.366199 180.976884 371.700354 182.275713 
L 433.636364 166.341176 
L 370.190414 174.377978 
z
" style="fill:#e4f8c7;stroke:#afabb3;stroke-linejoin:miter;stroke-width:0.5;"/>
   </g>
   <g id="patch_11">
    <path d="M 371.700354 182.275713 
C 372.913846 186.992436 374.662176 191.55514 376.91132 195.875023 
C 379.160464 200.194907 381.895734 204.243761 385.063895 207.942787 
L 433.636364 166.341176 
L 371.700354 182.275713 
z
" style="fill:#ffc561;stroke:#afabb3;stroke-linejoin:miter;stroke-width:0.5;"/>
   </g>
   <g id="patch_12">
    <path d="M 385.063895 207.942787 
C 387.625195 210.933264 390.457204 213.680822 393.523827 216.150443 
C 396.59045 218.620065 399.878603 220.801212 403.346376 222.666085 
L 433.636364 166.341176 
L 385.063895 207.942787 
z
" style="fill:#ffc561;stroke:#afabb3;stroke-linejoin:miter;stroke-width:0.5;"/>
   </g>
   <g id="patch_13">
    <path d="M 403.346376 222.666085 
C 403.346376 222.666085 403.346376 222.666085 403.346376 222.666085 
L 433.636364 166.341176 
L 403.346376 222.666085 
z
" style="fill:#ffc561;stroke:#afabb3;stroke-linejoin:miter;stroke-width:0.5;"/>
   </g>
   <g id="patch_14">
    <path d="M 403.346376 222.666085 
C 404.682154 223.38443 406.043064 224.055029 407.426522 224.676611 
C 408.809981 225.298192 410.215114 225.870363 411.639255 226.392037 
L 433.636364 166.341176 
L 403.346376 222.666085 
z
" style="fill:#ffc561;stroke:#afabb3;stroke-linejoin:miter;stroke-width:0.5;"/>
   </g>
   <g id="patch_15">
    <path d="M 411.639255 226.392037 
C 413.518605 227.080458 415.429238 227.680276 417.364842 228.189509 
C 419.300447 228.698743 421.25889 229.11683 423.233704 229.442392 
L 433.636364 166.341176 
L 411.639255 226.392037 
z
" style="fill:#ffc561;stroke:#afabb3;stroke-linejoin:miter;stroke-width:0.5;"/>
   </g>
   <g id="patch_16">
    <path d="M 423.233704 229.442392 
C 425.650047 229.840742 428.087278 230.09997 430.533352 230.218794 
C 432.979425 230.337618 435.430306 230.315842 437.873883 230.153574 
L 433.636364 166.341176 
L 423.233704 229.442392 
z
" style="fill:#ffc561;stroke:#afabb3;stroke-linejoin:miter;stroke-width:0.5;"/>
   </g>
   <g id="patch_17">
    <path d="M 437.873883 230.153574 
C 440.638149 229.970011 443.387569 229.607025 446.104763 229.06691 
C 448.821956 228.526796 451.501185 227.810695 454.125513 226.923133 
L 433.636364 166.341176 
L 437.873883 230.153574 
z
" style="fill:#f93b3b;stroke:#afabb3;stroke-linejoin:miter;stroke-width:0.5;"/>
   </g>
   <g id="patch_18">
    <path d="M 454.125513 226.923133 
C 455.602751 226.423523 457.061222 225.870048 458.497999 225.263819 
C 459.934776 224.65759 461.348899 223.999011 462.737531 223.289405 
L 433.636364 166.341176 
L 454.125513 226.923133 
z
" style="fill:#f93b3b;stroke:#afabb3;stroke-linejoin:miter;stroke-width:0.5;"/>
   </g>
   <g id="patch_19">
    <path d="M 462.737531 223.289405 
C 464.315823 222.48288 465.859904 221.611092 467.365775 220.676298 
C 468.871646 219.741505 470.338005 218.744513 471.761054 217.687906 
L 433.636364 166.341176 
L 462.737531 223.289405 
z
" style="fill:#f93b3b;stroke:#afabb3;stroke-linejoin:miter;stroke-width:0.5;"/>
   </g>
   <g id="patch_20">
    <path d="M 471.761054 217.687906 
C 474.945548 215.323436 477.903183 212.667833 480.59571 209.755442 
C 483.288237 206.843051 485.703998 203.686482 487.811751 200.326556 
L 433.636364 166.341176 
L 471.761054 217.687906 
z
" style="fill:#34cceb;stroke:#afabb3;stroke-linejoin:miter;stroke-width:0.5;"/>
   </g>
   <g id="patch_21">
    <path d="M 487.811751 200.326556 
C 490.990412 195.25952 493.44253 189.771497 495.096327 184.023133 
C 496.750124 178.274769 497.589305 172.322705 497.589305 166.341172 
L 433.636364 166.341176 
L 487.811751 200.326556 
z
" style="fill:#34cceb;stroke:#afabb3;stroke-linejoin:miter;stroke-width:0.5;"/>
   </g>
   <g id="matplotlib.axis_1"/>
   <g id="matplotlib.axis_2"/>
   <g id="text_1">
    <!-- A -->
    <defs>
     <path d="M 34.1875 63.1875 
L 20.796875 26.90625 
L 47.609375 26.90625 
z
M 28.609375 72.90625 
L 39.796875 72.90625 
L 67.578125 0 
L 57.328125 0 
L 50.6875 18.703125 
L 17.828125 18.703125 
L 11.1875 0 
L 0.78125 0 
z
" id="DejaVuSans-65"/>
    </defs>
    <g transform="translate(502.517 154.806074)scale(0.1 -0.1)">
     <use xlink:href="#DejaVuSans-65"/>
    </g>
   </g>
   <g id="text_2">
    <!-- G -->
    <defs>
     <path d="M 59.515625 10.40625 
L 59.515625 29.984375 
L 43.40625 29.984375 
L 43.40625 38.09375 
L 69.28125 38.09375 
L 69.28125 6.78125 
Q 63.578125 2.734375 56.6875 0.65625 
Q 49.8125 -1.421875 42 -1.421875 
Q 24.90625 -1.421875 15.25 8.5625 
Q 5.609375 18.5625 5.609375 36.375 
Q 5.609375 54.25 15.25 64.234375 
Q 24.90625 74.21875 42 74.21875 
Q 49.125 74.21875 55.546875 72.453125 
Q 61.96875 70.703125 67.390625 67.28125 
L 67.390625 56.78125 
Q 61.921875 61.421875 55.765625 63.765625 
Q 49.609375 66.109375 42.828125 66.109375 
Q 29.4375 66.109375 22.71875 58.640625 
Q 16.015625 51.171875 16.015625 36.375 
Q 16.015625 21.625 22.71875 14.15625 
Q 29.4375 6.6875 42.828125 6.6875 
Q 48.046875 6.6875 52.140625 7.59375 
Q 56.25 8.5 59.515625 10.40625 
z
" id="DejaVuSans-71"/>
    </defs>
    <g transform="translate(487.520445 123.874674)scale(0.1 -0.1)">
     <use xlink:href="#DejaVuSans-71"/>
    </g>
   </g>
   <g id="text_3">
    <!-- V -->
    <defs>
     <path d="M 28.609375 0 
L 0.78125 72.90625 
L 11.078125 72.90625 
L 34.1875 11.53125 
L 57.328125 72.90625 
L 67.578125 72.90625 
L 39.796875 0 
z
" id="DejaVuSans-86"/>
    </defs>
    <g transform="translate(458.264753 103.204295)scale(0.1 -0.1)">
     <use xlink:href="#DejaVuSans-86"/>
    </g>
   </g>
   <g id="text_4">
    <!-- L -->
    <defs>
     <path d="M 9.8125 72.90625 
L 19.671875 72.90625 
L 19.671875 8.296875 
L 55.171875 8.296875 
L 55.171875 0 
L 9.8125 0 
z
" id="DejaVuSans-76"/>
    </defs>
    <g transform="translate(413.025529 100.37862)scale(0.1 -0.1)">
     <use xlink:href="#DejaVuSans-76"/>
    </g>
   </g>
   <g id="text_5">
    <!-- I -->
    <defs>
     <path d="M 9.8125 72.90625 
L 19.671875 72.90625 
L 19.671875 0 
L 9.8125 0 
z
" id="DejaVuSans-73"/>
    </defs>
    <g transform="translate(386.605837 114.275544)scale(0.1 -0.1)">
     <use xlink:href="#DejaVuSans-73"/>
    </g>
   </g>
   <g id="text_6">
    <!-- P -->
    <defs>
     <path d="M 19.671875 64.796875 
L 19.671875 37.40625 
L 32.078125 37.40625 
Q 38.96875 37.40625 42.71875 40.96875 
Q 46.484375 44.53125 46.484375 51.125 
Q 46.484375 57.671875 42.71875 61.234375 
Q 38.96875 64.796875 32.078125 64.796875 
z
M 9.8125 72.90625 
L 32.078125 72.90625 
Q 44.34375 72.90625 50.609375 67.359375 
Q 56.890625 61.8125 56.890625 51.125 
Q 56.890625 40.328125 50.609375 34.8125 
Q 44.34375 29.296875 32.078125 29.296875 
L 19.671875 29.296875 
L 19.671875 0 
L 9.8125 0 
z
" id="DejaVuSans-80"/>
    </defs>
    <g transform="translate(367.745471 132.147739)scale(0.1 -0.1)">
     <use xlink:href="#DejaVuSans-80"/>
    </g>
   </g>
   <g id="text_7">
    <!-- F -->
    <defs>
     <path d="M 9.8125 72.90625 
L 51.703125 72.90625 
L 51.703125 64.59375 
L 19.671875 64.59375 
L 19.671875 43.109375 
L 48.578125 43.109375 
L 48.578125 34.8125 
L 19.671875 34.8125 
L 19.671875 0 
L 9.8125 0 
z
" id="DejaVuSans-70"/>
    </defs>
    <g transform="translate(357.997683 161.059102)scale(0.1 -0.1)">
     <use xlink:href="#DejaVuSans-70"/>
    </g>
   </g>
   <g id="text_8">
    <!-- W -->
    <defs>
     <path d="M 3.328125 72.90625 
L 13.28125 72.90625 
L 28.609375 11.28125 
L 43.890625 72.90625 
L 54.984375 72.90625 
L 70.3125 11.28125 
L 85.59375 72.90625 
L 95.609375 72.90625 
L 77.296875 0 
L 64.890625 0 
L 49.515625 63.28125 
L 33.984375 0 
L 21.578125 0 
z
" id="DejaVuSans-87"/>
    </defs>
    <g transform="translate(353.840826 176.958066)scale(0.1 -0.1)">
     <use xlink:href="#DejaVuSans-87"/>
    </g>
   </g>
   <g id="text_9">
    <!-- M -->
    <defs>
     <path d="M 9.8125 72.90625 
L 24.515625 72.90625 
L 43.109375 23.296875 
L 61.8125 72.90625 
L 76.515625 72.90625 
L 76.515625 0 
L 66.890625 0 
L 66.890625 64.015625 
L 48.09375 14.015625 
L 38.1875 14.015625 
L 19.390625 64.015625 
L 19.390625 0 
L 9.8125 0 
z
" id="DejaVuSans-77"/>
    </defs>
    <g transform="translate(355.911492 182.310917)scale(0.1 -0.1)">
     <use xlink:href="#DejaVuSans-77"/>
    </g>
   </g>
   <g id="text_10">
    <!-- S -->
    <defs>
     <path d="M 53.515625 70.515625 
L 53.515625 60.890625 
Q 47.90625 63.578125 42.921875 64.890625 
Q 37.9375 66.21875 33.296875 66.21875 
Q 25.25 66.21875 20.875 63.09375 
Q 16.5 59.96875 16.5 54.203125 
Q 16.5 49.359375 19.40625 46.890625 
Q 22.3125 44.4375 30.421875 42.921875 
L 36.375 41.703125 
Q 47.40625 39.59375 52.65625 34.296875 
Q 57.90625 29 57.90625 20.125 
Q 57.90625 9.515625 50.796875 4.046875 
Q 43.703125 -1.421875 29.984375 -1.421875 
Q 24.8125 -1.421875 18.96875 -0.25 
Q 13.140625 0.921875 6.890625 3.21875 
L 6.890625 13.375 
Q 12.890625 10.015625 18.65625 8.296875 
Q 24.421875 6.59375 29.984375 6.59375 
Q 38.421875 6.59375 43.015625 9.90625 
Q 47.609375 13.234375 47.609375 19.390625 
Q 47.609375 24.75 44.3125 27.78125 
Q 41.015625 30.8125 33.5 32.328125 
L 27.484375 33.5 
Q 16.453125 35.6875 11.515625 40.375 
Q 6.59375 45.0625 6.59375 53.421875 
Q 6.59375 63.09375 13.40625 68.65625 
Q 20.21875 74.21875 32.171875 74.21875 
Q 37.3125 74.21875 42.625 73.28125 
Q 47.953125 72.359375 53.515625 70.515625 
z
" id="DejaVuSans-83"/>
    </defs>
    <g transform="translate(364.890378 201.587783)scale(0.1 -0.1)">
     <use xlink:href="#DejaVuSans-83"/>
    </g>
   </g>
   <g id="text_11">
    <!-- T -->
    <defs>
     <path d="M -0.296875 72.90625 
L 61.375 72.90625 
L 61.375 64.59375 
L 35.5 64.59375 
L 35.5 0 
L 25.59375 0 
L 25.59375 64.59375 
L -0.296875 64.59375 
z
" id="DejaVuSans-84"/>
    </defs>
    <g transform="translate(383.404761 223.890745)scale(0.1 -0.1)">
     <use xlink:href="#DejaVuSans-84"/>
    </g>
   </g>
   <g id="text_12">
    <!-- C -->
    <defs>
     <path d="M 64.40625 67.28125 
L 64.40625 56.890625 
Q 59.421875 61.53125 53.78125 63.8125 
Q 48.140625 66.109375 41.796875 66.109375 
Q 29.296875 66.109375 22.65625 58.46875 
Q 16.015625 50.828125 16.015625 36.375 
Q 16.015625 21.96875 22.65625 14.328125 
Q 29.296875 6.6875 41.796875 6.6875 
Q 48.140625 6.6875 53.78125 8.984375 
Q 59.421875 11.28125 64.40625 15.921875 
L 64.40625 5.609375 
Q 59.234375 2.09375 53.4375 0.328125 
Q 47.65625 -1.421875 41.21875 -1.421875 
Q 24.65625 -1.421875 15.125 8.703125 
Q 5.609375 18.84375 5.609375 36.375 
Q 5.609375 53.953125 15.125 64.078125 
Q 24.65625 74.21875 41.21875 74.21875 
Q 47.75 74.21875 53.53125 72.484375 
Q 59.328125 70.75 64.40625 67.28125 
z
" id="DejaVuSans-67"/>
    </defs>
    <g transform="translate(393.334565 231.057951)scale(0.1 -0.1)">
     <use xlink:href="#DejaVuSans-67"/>
    </g>
   </g>
   <g id="text_13">
    <!-- Y -->
    <defs>
     <path d="M -0.203125 72.90625 
L 10.40625 72.90625 
L 30.609375 42.921875 
L 50.6875 72.90625 
L 61.28125 72.90625 
L 35.5 34.71875 
L 35.5 0 
L 25.59375 0 
L 25.59375 34.71875 
z
" id="DejaVuSans-89"/>
    </defs>
    <g transform="translate(398.697726 233.269529)scale(0.1 -0.1)">
     <use xlink:href="#DejaVuSans-89"/>
    </g>
   </g>
   <g id="text_14">
    <!-- N -->
    <defs>
     <path d="M 9.8125 72.90625 
L 23.09375 72.90625 
L 55.421875 11.921875 
L 55.421875 72.90625 
L 64.984375 72.90625 
L 64.984375 0 
L 51.703125 0 
L 19.390625 60.984375 
L 19.390625 0 
L 9.8125 0 
z
" id="DejaVuSans-78"/>
    </defs>
    <g transform="translate(408.25644 237.133718)scale(0.1 -0.1)">
     <use xlink:href="#DejaVuSans-78"/>
    </g>
   </g>
   <g id="text_15">
    <!-- Q -->
    <defs>
     <path d="M 39.40625 66.21875 
Q 28.65625 66.21875 22.328125 58.203125 
Q 16.015625 50.203125 16.015625 36.375 
Q 16.015625 22.609375 22.328125 14.59375 
Q 28.65625 6.59375 39.40625 6.59375 
Q 50.140625 6.59375 56.421875 14.59375 
Q 62.703125 22.609375 62.703125 36.375 
Q 62.703125 50.203125 56.421875 58.203125 
Q 50.140625 66.21875 39.40625 66.21875 
z
M 53.21875 1.3125 
L 66.21875 -12.890625 
L 54.296875 -12.890625 
L 43.5 -1.21875 
Q 41.890625 -1.3125 41.03125 -1.359375 
Q 40.1875 -1.421875 39.40625 -1.421875 
Q 24.03125 -1.421875 14.8125 8.859375 
Q 5.609375 19.140625 5.609375 36.375 
Q 5.609375 53.65625 14.8125 63.9375 
Q 24.03125 74.21875 39.40625 74.21875 
Q 54.734375 74.21875 63.90625 63.9375 
Q 73.09375 53.65625 73.09375 36.375 
Q 73.09375 23.6875 67.984375 14.640625 
Q 62.890625 5.609375 53.21875 1.3125 
z
" id="DejaVuSans-81"/>
    </defs>
    <g transform="translate(422.351175 239.365931)scale(0.1 -0.1)">
     <use xlink:href="#DejaVuSans-81"/>
    </g>
   </g>
   <g id="text_16">
    <!-- K -->
    <defs>
     <path d="M 9.8125 72.90625 
L 19.671875 72.90625 
L 19.671875 42.09375 
L 52.390625 72.90625 
L 65.09375 72.90625 
L 28.90625 38.921875 
L 67.671875 0 
L 54.6875 0 
L 19.671875 35.109375 
L 19.671875 0 
L 9.8125 0 
z
" id="DejaVuSans-75"/>
    </defs>
    <g transform="translate(447.351603 238.098859)scale(0.1 -0.1)">
     <use xlink:href="#DejaVuSans-75"/>
    </g>
   </g>
   <g id="text_17">
    <!-- R -->
    <defs>
     <path d="M 44.390625 34.1875 
Q 47.5625 33.109375 50.5625 29.59375 
Q 53.5625 26.078125 56.59375 19.921875 
L 66.609375 0 
L 56 0 
L 46.6875 18.703125 
Q 43.0625 26.03125 39.671875 28.421875 
Q 36.28125 30.8125 30.421875 30.8125 
L 19.671875 30.8125 
L 19.671875 0 
L 9.8125 0 
L 9.8125 72.90625 
L 32.078125 72.90625 
Q 44.578125 72.90625 50.734375 67.671875 
Q 56.890625 62.453125 56.890625 51.90625 
Q 56.890625 45.015625 53.6875 40.46875 
Q 50.484375 35.9375 44.390625 34.1875 
z
M 19.671875 64.796875 
L 19.671875 38.921875 
L 32.078125 38.921875 
Q 39.203125 38.921875 42.84375 42.21875 
Q 46.484375 45.515625 46.484375 51.90625 
Q 46.484375 58.296875 42.84375 61.546875 
Q 39.203125 64.796875 32.078125 64.796875 
z
" id="DejaVuSans-82"/>
    </defs>
    <g transform="translate(460.984162 233.915458)scale(0.1 -0.1)">
     <use xlink:href="#DejaVuSans-82"/>
    </g>
   </g>
   <g id="text_18">
    <!-- H -->
    <defs>
     <path d="M 9.8125 72.90625 
L 19.671875 72.90625 
L 19.671875 43.015625 
L 55.515625 43.015625 
L 55.515625 72.90625 
L 65.375 72.90625 
L 65.375 0 
L 55.515625 0 
L 55.515625 34.71875 
L 19.671875 34.71875 
L 19.671875 0 
L 9.8125 0 
z
" id="DejaVuSans-72"/>
    </defs>
    <g transform="translate(470.738716 228.869186)scale(0.1 -0.1)">
     <use xlink:href="#DejaVuSans-72"/>
    </g>
   </g>
   <g id="text_19">
    <!-- D -->
    <defs>
     <path d="M 19.671875 64.796875 
L 19.671875 8.109375 
L 31.59375 8.109375 
Q 46.6875 8.109375 53.6875 14.9375 
Q 60.6875 21.78125 60.6875 36.53125 
Q 60.6875 51.171875 53.6875 57.984375 
Q 46.6875 64.796875 31.59375 64.796875 
z
M 9.8125 72.90625 
L 30.078125 72.90625 
Q 51.265625 72.90625 61.171875 64.09375 
Q 71.09375 55.28125 71.09375 36.53125 
Q 71.09375 17.671875 61.125 8.828125 
Q 51.171875 0 30.078125 0 
L 9.8125 0 
z
" id="DejaVuSans-68"/>
    </defs>
    <g transform="translate(485.291645 216.856244)scale(0.1 -0.1)">
     <use xlink:href="#DejaVuSans-68"/>
    </g>
   </g>
   <g id="text_20">
    <!-- E -->
    <defs>
     <path d="M 9.8125 72.90625 
L 55.90625 72.90625 
L 55.90625 64.59375 
L 19.671875 64.59375 
L 19.671875 43.015625 
L 54.390625 43.015625 
L 54.390625 34.71875 
L 19.671875 34.71875 
L 19.671875 8.296875 
L 56.78125 8.296875 
L 56.78125 0 
L 9.8125 0 
z
" id="DejaVuSans-69"/>
    </defs>
    <g transform="translate(501.242323 188.550703)scale(0.1 -0.1)">
     <use xlink:href="#DejaVuSans-69"/>
    </g>
   </g>
   <g id="text_21">
    <!-- Full sequence -->
    <defs>
     <path d="M 8.5 21.578125 
L 8.5 54.6875 
L 17.484375 54.6875 
L 17.484375 21.921875 
Q 17.484375 14.15625 20.5 10.265625 
Q 23.53125 6.390625 29.59375 6.390625 
Q 36.859375 6.390625 41.078125 11.03125 
Q 45.3125 15.671875 45.3125 23.6875 
L 45.3125 54.6875 
L 54.296875 54.6875 
L 54.296875 0 
L 45.3125 0 
L 45.3125 8.40625 
Q 42.046875 3.421875 37.71875 1 
Q 33.40625 -1.421875 27.6875 -1.421875 
Q 18.265625 -1.421875 13.375 4.4375 
Q 8.5 10.296875 8.5 21.578125 
z
M 31.109375 56 
z
" id="DejaVuSans-117"/>
     <path d="M 9.421875 75.984375 
L 18.40625 75.984375 
L 18.40625 0 
L 9.421875 0 
z
" id="DejaVuSans-108"/>
     <path id="DejaVuSans-32"/>
     <path d="M 44.28125 53.078125 
L 44.28125 44.578125 
Q 40.484375 46.53125 36.375 47.5 
Q 32.28125 48.484375 27.875 48.484375 
Q 21.1875 48.484375 17.84375 46.4375 
Q 14.5 44.390625 14.5 40.28125 
Q 14.5 37.15625 16.890625 35.375 
Q 19.28125 33.59375 26.515625 31.984375 
L 29.59375 31.296875 
Q 39.15625 29.25 43.1875 25.515625 
Q 47.21875 21.78125 47.21875 15.09375 
Q 47.21875 7.46875 41.1875 3.015625 
Q 35.15625 -1.421875 24.609375 -1.421875 
Q 20.21875 -1.421875 15.453125 -0.5625 
Q 10.6875 0.296875 5.421875 2 
L 5.421875 11.28125 
Q 10.40625 8.6875 15.234375 7.390625 
Q 20.0625 6.109375 24.8125 6.109375 
Q 31.15625 6.109375 34.5625 8.28125 
Q 37.984375 10.453125 37.984375 14.40625 
Q 37.984375 18.0625 35.515625 20.015625 
Q 33.0625 21.96875 24.703125 23.78125 
L 21.578125 24.515625 
Q 13.234375 26.265625 9.515625 29.90625 
Q 5.8125 33.546875 5.8125 39.890625 
Q 5.8125 47.609375 11.28125 51.796875 
Q 16.75 56 26.8125 56 
Q 31.78125 56 36.171875 55.265625 
Q 40.578125 54.546875 44.28125 53.078125 
z
" id="DejaVuSans-115"/>
     <path d="M 56.203125 29.59375 
L 56.203125 25.203125 
L 14.890625 25.203125 
Q 15.484375 15.921875 20.484375 11.0625 
Q 25.484375 6.203125 34.421875 6.203125 
Q 39.59375 6.203125 44.453125 7.46875 
Q 49.3125 8.734375 54.109375 11.28125 
L 54.109375 2.78125 
Q 49.265625 0.734375 44.1875 -0.34375 
Q 39.109375 -1.421875 33.890625 -1.421875 
Q 20.796875 -1.421875 13.15625 6.1875 
Q 5.515625 13.8125 5.515625 26.8125 
Q 5.515625 40.234375 12.765625 48.109375 
Q 20.015625 56 32.328125 56 
Q 43.359375 56 49.78125 48.890625 
Q 56.203125 41.796875 56.203125 29.59375 
z
M 47.21875 32.234375 
Q 47.125 39.59375 43.09375 43.984375 
Q 39.0625 48.390625 32.421875 48.390625 
Q 24.90625 48.390625 20.390625 44.140625 
Q 15.875 39.890625 15.1875 32.171875 
z
" id="DejaVuSans-101"/>
     <path d="M 14.796875 27.296875 
Q 14.796875 17.390625 18.875 11.75 
Q 22.953125 6.109375 30.078125 6.109375 
Q 37.203125 6.109375 41.296875 11.75 
Q 45.40625 17.390625 45.40625 27.296875 
Q 45.40625 37.203125 41.296875 42.84375 
Q 37.203125 48.484375 30.078125 48.484375 
Q 22.953125 48.484375 18.875 42.84375 
Q 14.796875 37.203125 14.796875 27.296875 
z
M 45.40625 8.203125 
Q 42.578125 3.328125 38.25 0.953125 
Q 33.9375 -1.421875 27.875 -1.421875 
Q 17.96875 -1.421875 11.734375 6.484375 
Q 5.515625 14.40625 5.515625 27.296875 
Q 5.515625 40.1875 11.734375 48.09375 
Q 17.96875 56 27.875 56 
Q 33.9375 56 38.25 53.625 
Q 42.578125 51.265625 45.40625 46.390625 
L 45.40625 54.6875 
L 54.390625 54.6875 
L 54.390625 -20.796875 
L 45.40625 -20.796875 
z
" id="DejaVuSans-113"/>
     <path d="M 54.890625 33.015625 
L 54.890625 0 
L 45.90625 0 
L 45.90625 32.71875 
Q 45.90625 40.484375 42.875 44.328125 
Q 39.84375 48.1875 33.796875 48.1875 
Q 26.515625 48.1875 22.3125 43.546875 
Q 18.109375 38.921875 18.109375 30.90625 
L 18.109375 0 
L 9.078125 0 
L 9.078125 54.6875 
L 18.109375 54.6875 
L 18.109375 46.1875 
Q 21.34375 51.125 25.703125 53.5625 
Q 30.078125 56 35.796875 56 
Q 45.21875 56 50.046875 50.171875 
Q 54.890625 44.34375 54.890625 33.015625 
z
" id="DejaVuSans-110"/>
     <path d="M 48.78125 52.59375 
L 48.78125 44.1875 
Q 44.96875 46.296875 41.140625 47.34375 
Q 37.3125 48.390625 33.40625 48.390625 
Q 24.65625 48.390625 19.8125 42.84375 
Q 14.984375 37.3125 14.984375 27.296875 
Q 14.984375 17.28125 19.8125 11.734375 
Q 24.65625 6.203125 33.40625 6.203125 
Q 37.3125 6.203125 41.140625 7.25 
Q 44.96875 8.296875 48.78125 10.40625 
L 48.78125 2.09375 
Q 45.015625 0.34375 40.984375 -0.53125 
Q 36.96875 -1.421875 32.421875 -1.421875 
Q 20.0625 -1.421875 12.78125 6.34375 
Q 5.515625 14.109375 5.515625 27.296875 
Q 5.515625 40.671875 12.859375 48.328125 
Q 20.21875 56 33.015625 56 
Q 37.15625 56 41.109375 55.140625 
Q 45.0625 54.296875 48.78125 52.59375 
z
" id="DejaVuSans-99"/>
    </defs>
    <g transform="translate(392.557926 80.4)scale(0.12 -0.12)">
     <use xlink:href="#DejaVuSans-70"/>
     <use x="52.019531" xlink:href="#DejaVuSans-117"/>
     <use x="115.398438" xlink:href="#DejaVuSans-108"/>
     <use x="143.181641" xlink:href="#DejaVuSans-108"/>
     <use x="170.964844" xlink:href="#DejaVuSans-32"/>
     <use x="202.751953" xlink:href="#DejaVuSans-115"/>
     <use x="254.851562" xlink:href="#DejaVuSans-101"/>
     <use x="316.375" xlink:href="#DejaVuSans-113"/>
     <use x="379.851562" xlink:href="#DejaVuSans-117"/>
     <use x="443.230469" xlink:href="#DejaVuSans-101"/>
     <use x="504.753906" xlink:href="#DejaVuSans-110"/>
     <use x="568.132812" xlink:href="#DejaVuSans-99"/>
     <use x="623.113281" xlink:href="#DejaVuSans-101"/>
    </g>
   </g>
  </g>
  <g id="axes_2">
   <g id="patch_22">
    <path d="M 1106.316578 166.341176 
C 1106.316578 160.611818 1105.546663 154.908354 1104.027524 149.384065 
C 1102.508386 143.859776 1100.253756 138.564598 1097.324227 133.640838 
L 1042.363636 166.341176 
L 1106.316578 166.341176 
z
" style="fill:#e4f8c7;stroke:#afabb3;stroke-linejoin:miter;stroke-width:0.5;"/>
   </g>
   <g id="patch_23">
    <path d="M 1097.324227 133.640838 
C 1095.93032 131.298049 1094.388039 129.046782 1092.706826 126.900817 
C 1091.025613 124.754853 1089.208906 122.718579 1087.267826 120.804461 
L 1042.363636 166.341176 
L 1097.324227 133.640838 
z
" style="fill:#e4f8c7;stroke:#afabb3;stroke-linejoin:miter;stroke-width:0.5;"/>
   </g>
   <g id="patch_24">
    <path d="M 1087.267826 120.804461 
C 1083.877222 117.460954 1080.123771 114.506573 1076.077323 111.996296 
C 1072.030875 109.486019 1067.716687 107.435517 1063.215047 105.882948 
L 1042.363636 166.341176 
L 1087.267826 120.804461 
z
" style="fill:#e4f8c7;stroke:#afabb3;stroke-linejoin:miter;stroke-width:0.5;"/>
   </g>
   <g id="patch_25">
    <path d="M 1063.215047 105.882948 
C 1056.876164 103.696734 1050.232709 102.520981 1043.528527 102.398845 
C 1036.824344 102.27671 1030.142473 103.209704 1023.728166 105.163583 
L 1042.363636 166.341176 
L 1063.215047 105.882948 
z
" style="fill:#e4f8c7;stroke:#afabb3;stroke-linejoin:miter;stroke-width:0.5;"/>
   </g>
   <g id="patch_26">
    <path d="M 1023.728166 105.163583 
C 1019.798183 106.360706 1015.99268 107.933735 1012.364445 109.860851 
C 1008.736209 111.787967 1005.302094 114.060218 1002.109735 116.646085 
L 1042.363636 166.341176 
L 1023.728166 105.163583 
z
" style="fill:#e4f8c7;stroke:#afabb3;stroke-linejoin:miter;stroke-width:0.5;"/>
   </g>
   <g id="patch_27">
    <path d="M 1002.109735 116.646085 
C 999.559794 118.711582 997.172608 120.970282 994.969333 123.402165 
C 992.766058 125.834049 990.753224 128.43191 988.94867 131.172724 
L 1042.363636 166.341176 
L 1002.109735 116.646085 
z
" style="fill:#e4f8c7;stroke:#afabb3;stroke-linejoin:miter;stroke-width:0.5;"/>
   </g>
   <g id="patch_28">
    <path d="M 988.94867 131.172724 
C 987.544977 133.304697 986.270184 135.518799 985.131134 137.803144 
C 983.992083 140.087488 982.990818 142.43798 982.132713 144.842002 
L 1042.363636 166.341176 
L 988.94867 131.172724 
z
" style="fill:#e4f8c7;stroke:#afabb3;stroke-linejoin:miter;stroke-width:0.5;"/>
   </g>
   <g id="patch_29">
    <path d="M 982.132713 144.842002 
C 981.878615 145.553869 981.637157 146.270185 981.408453 146.990612 
C 981.17975 147.711039 980.963836 148.435463 980.760815 149.163545 
L 1042.363636 166.341176 
L 982.132713 144.842002 
z
" style="fill:#e4f8c7;stroke:#afabb3;stroke-linejoin:miter;stroke-width:0.5;"/>
   </g>
   <g id="patch_30">
    <path d="M 980.760815 149.163545 
C 980.311886 150.773503 979.926243 152.400442 979.604774 154.040613 
C 979.283305 155.680784 979.026257 157.332927 978.834222 158.993236 
L 1042.363636 166.341176 
L 980.760815 149.163545 
z
" style="fill:#e4f8c7;stroke:#afabb3;stroke-linejoin:miter;stroke-width:0.5;"/>
   </g>
   <g id="patch_31">
    <path d="M 978.834222 158.993236 
C 978.305484 163.564644 978.271706 168.179798 978.733477 172.758456 
C 979.195247 177.337114 980.149874 181.852584 981.580759 186.226359 
L 1042.363636 166.341176 
L 978.834222 158.993236 
z
" style="fill:#ffc561;stroke:#afabb3;stroke-linejoin:miter;stroke-width:0.5;"/>
   </g>
   <g id="patch_32">
    <path d="M 981.580759 186.226359 
C 982.735005 189.754535 984.194256 193.175522 985.941971 196.450549 
C 987.689686 199.725576 989.719238 202.842222 992.007626 205.765165 
L 1042.363636 166.341176 
L 981.580759 186.226359 
z
" style="fill:#ffc561;stroke:#afabb3;stroke-linejoin:miter;stroke-width:0.5;"/>
   </g>
   <g id="patch_33">
    <path d="M 992.007626 205.765165 
C 992.597554 206.518677 993.204321 207.258852 993.827468 207.985133 
C 994.450616 208.711413 995.089986 209.423615 995.745097 210.1212 
L 1042.363636 166.341176 
L 992.007626 205.765165 
z
" style="fill:#ffc561;stroke:#afabb3;stroke-linejoin:miter;stroke-width:0.5;"/>
   </g>
   <g id="patch_34">
    <path d="M 995.745097 210.1212 
C 997.131476 211.597466 998.587196 213.007046 1000.107335 214.345173 
C 1001.627474 215.6833 1003.210317 216.948465 1004.850512 218.13639 
L 1042.363636 166.341176 
L 995.745097 210.1212 
z
" style="fill:#ffc561;stroke:#afabb3;stroke-linejoin:miter;stroke-width:0.5;"/>
   </g>
   <g id="patch_35">
    <path d="M 1004.850512 218.13639 
C 1007.131457 219.788384 1009.519038 221.287904 1011.997658 222.625153 
C 1014.476279 223.962403 1017.040528 225.134464 1019.673656 226.13368 
L 1042.363636 166.341176 
L 1004.850512 218.13639 
z
" style="fill:#ffc561;stroke:#afabb3;stroke-linejoin:miter;stroke-width:0.5;"/>
   </g>
   <g id="patch_36">
    <path d="M 1019.673656 226.13368 
C 1022.222414 227.100879 1024.830408 227.904122 1027.481675 228.538491 
C 1030.132942 229.17286 1032.82206 229.637058 1035.532567 229.928244 
L 1042.363636 166.341176 
L 1019.673656 226.13368 
z
" style="fill:#ffc561;stroke:#afabb3;stroke-linejoin:miter;stroke-width:0.5;"/>
   </g>
   <g id="patch_37">
    <path d="M 1035.532567 229.928244 
C 1039.541319 230.358899 1043.581828 230.409501 1047.600108 230.079376 
C 1051.618387 229.74925 1055.59646 229.039874 1059.481172 227.960724 
L 1042.363636 166.341176 
L 1035.532567 229.928244 
z
" style="fill:#f93b3b;stroke:#afabb3;stroke-linejoin:miter;stroke-width:0.5;"/>
   </g>
   <g id="patch_38">
    <path d="M 1059.481172 227.960724 
C 1063.178411 226.933654 1066.775722 225.575906 1070.229548 223.903922 
C 1073.683375 222.231937 1076.979723 220.25249 1080.078681 217.989546 
L 1042.363636 166.341176 
L 1059.481172 227.960724 
z
" style="fill:#f93b3b;stroke:#afabb3;stroke-linejoin:miter;stroke-width:0.5;"/>
   </g>
   <g id="patch_39">
    <path d="M 1080.078681 217.989546 
C 1081.350054 217.061155 1082.586715 216.086135 1083.786135 215.066481 
C 1084.985554 214.046827 1086.146916 212.983233 1087.267845 211.877873 
L 1042.363636 166.341176 
L 1080.078681 217.989546 
z
" style="fill:#f93b3b;stroke:#afabb3;stroke-linejoin:miter;stroke-width:0.5;"/>
   </g>
   <g id="patch_40">
    <path d="M 1087.267845 211.877873 
C 1089.965464 209.217723 1092.421373 206.323113 1094.606582 203.228211 
C 1096.791791 200.13331 1098.697668 196.850341 1100.301718 193.418056 
L 1042.363636 166.341176 
L 1087.267845 211.877873 
z
" style="fill:#34cceb;stroke:#afabb3;stroke-linejoin:miter;stroke-width:0.5;"/>
   </g>
   <g id="patch_41">
    <path d="M 1100.301718 193.418056 
C 1102.276599 189.19228 1103.783249 184.763099 1104.794759 180.209618 
C 1105.806268 175.656138 1106.316579 171.005629 1106.316578 166.341153 
L 1042.363636 166.341176 
L 1100.301718 193.418056 
z
" style="fill:#34cceb;stroke:#afabb3;stroke-linejoin:miter;stroke-width:0.5;"/>
   </g>
   <g id="matplotlib.axis_3"/>
   <g id="matplotlib.axis_4"/>
   <g id="text_22">
    <!-- A -->
    <g transform="translate(1110.193913 150.447729)scale(0.1 -0.1)">
     <use xlink:href="#DejaVuSans-65"/>
    </g>
   </g>
   <g id="text_23">
    <!-- G -->
    <g transform="translate(1097.741145 125.716156)scale(0.1 -0.1)">
     <use xlink:href="#DejaVuSans-71"/>
    </g>
   </g>
   <g id="text_24">
    <!-- V -->
    <g transform="translate(1079.448691 109.321183)scale(0.1 -0.1)">
     <use xlink:href="#DejaVuSans-86"/>
    </g>
   </g>
   <g id="text_25">
    <!-- L -->
    <g transform="translate(1043.645016 98.763987)scale(0.1 -0.1)">
     <use xlink:href="#DejaVuSans-76"/>
    </g>
   </g>
   <g id="text_26">
    <!-- I -->
    <g transform="translate(1006.414526 106.972193)scale(0.1 -0.1)">
     <use xlink:href="#DejaVuSans-73"/>
    </g>
   </g>
   <g id="text_27">
    <!-- P -->
    <g transform="translate(984.200215 121.867639)scale(0.1 -0.1)">
     <use xlink:href="#DejaVuSans-80"/>
    </g>
   </g>
   <g id="text_28">
    <!-- F -->
    <g transform="translate(973.656321 137.708715)scale(0.1 -0.1)">
     <use xlink:href="#DejaVuSans-70"/>
    </g>
   </g>
   <g id="text_29">
    <!-- W -->
    <g transform="translate(965.425435 147.81493)scale(0.1 -0.1)">
     <use xlink:href="#DejaVuSans-87"/>
    </g>
   </g>
   <g id="text_30">
    <!-- M -->
    <g transform="translate(964.700763 155.569932)scale(0.1 -0.1)">
     <use xlink:href="#DejaVuSans-77"/>
    </g>
   </g>
   <g id="text_31">
    <!-- S -->
    <g transform="translate(966.022023 176.159559)scale(0.1 -0.1)">
     <use xlink:href="#DejaVuSans-83"/>
    </g>
   </g>
   <g id="text_32">
    <!-- T -->
    <g transform="translate(974.191992 202.220862)scale(0.1 -0.1)">
     <use xlink:href="#DejaVuSans-84"/>
    </g>
   </g>
   <g id="text_33">
    <!-- C -->
    <g transform="translate(981.991039 214.908903)scale(0.1 -0.1)">
     <use xlink:href="#DejaVuSans-67"/>
    </g>
   </g>
   <g id="text_34">
    <!-- Y -->
    <g transform="translate(989.773892 221.904947)scale(0.1 -0.1)">
     <use xlink:href="#DejaVuSans-89"/>
    </g>
   </g>
   <g id="text_35">
    <!-- N -->
    <g transform="translate(1001.479811 231.012926)scale(0.1 -0.1)">
     <use xlink:href="#DejaVuSans-78"/>
    </g>
   </g>
   <g id="text_36">
    <!-- Q -->
    <g transform="translate(1018.121604 237.517597)scale(0.1 -0.1)">
     <use xlink:href="#DejaVuSans-81"/>
    </g>
   </g>
   <g id="text_37">
    <!-- K -->
    <g transform="translate(1048.123755 239.212571)scale(0.1 -0.1)">
     <use xlink:href="#DejaVuSans-75"/>
    </g>
   </g>
   <g id="text_38">
    <!-- R -->
    <g transform="translate(1073.01614 232.419571)scale(0.1 -0.1)">
     <use xlink:href="#DejaVuSans-82"/>
    </g>
   </g>
   <g id="text_39">
    <!-- H -->
    <g transform="translate(1087.928384 222.698387)scale(0.1 -0.1)">
     <use xlink:href="#DejaVuSans-72"/>
    </g>
   </g>
   <g id="text_40">
    <!-- D -->
    <g transform="translate(1099.830876 209.67629)scale(0.1 -0.1)">
     <use xlink:href="#DejaVuSans-68"/>
    </g>
   </g>
   <g id="text_41">
    <!-- E -->
    <g transform="translate(1111.037871 184.355837)scale(0.1 -0.1)">
     <use xlink:href="#DejaVuSans-69"/>
    </g>
   </g>
   <g id="text_42">
    <!-- Swissprot all proteins -->
    <defs>
     <path d="M 4.203125 54.6875 
L 13.1875 54.6875 
L 24.421875 12.015625 
L 35.59375 54.6875 
L 46.1875 54.6875 
L 57.421875 12.015625 
L 68.609375 54.6875 
L 77.59375 54.6875 
L 63.28125 0 
L 52.6875 0 
L 40.921875 44.828125 
L 29.109375 0 
L 18.5 0 
z
" id="DejaVuSans-119"/>
     <path d="M 9.421875 54.6875 
L 18.40625 54.6875 
L 18.40625 0 
L 9.421875 0 
z
M 9.421875 75.984375 
L 18.40625 75.984375 
L 18.40625 64.59375 
L 9.421875 64.59375 
z
" id="DejaVuSans-105"/>
     <path d="M 18.109375 8.203125 
L 18.109375 -20.796875 
L 9.078125 -20.796875 
L 9.078125 54.6875 
L 18.109375 54.6875 
L 18.109375 46.390625 
Q 20.953125 51.265625 25.265625 53.625 
Q 29.59375 56 35.59375 56 
Q 45.5625 56 51.78125 48.09375 
Q 58.015625 40.1875 58.015625 27.296875 
Q 58.015625 14.40625 51.78125 6.484375 
Q 45.5625 -1.421875 35.59375 -1.421875 
Q 29.59375 -1.421875 25.265625 0.953125 
Q 20.953125 3.328125 18.109375 8.203125 
z
M 48.6875 27.296875 
Q 48.6875 37.203125 44.609375 42.84375 
Q 40.53125 48.484375 33.40625 48.484375 
Q 26.265625 48.484375 22.1875 42.84375 
Q 18.109375 37.203125 18.109375 27.296875 
Q 18.109375 17.390625 22.1875 11.75 
Q 26.265625 6.109375 33.40625 6.109375 
Q 40.53125 6.109375 44.609375 11.75 
Q 48.6875 17.390625 48.6875 27.296875 
z
" id="DejaVuSans-112"/>
     <path d="M 41.109375 46.296875 
Q 39.59375 47.171875 37.8125 47.578125 
Q 36.03125 48 33.890625 48 
Q 26.265625 48 22.1875 43.046875 
Q 18.109375 38.09375 18.109375 28.8125 
L 18.109375 0 
L 9.078125 0 
L 9.078125 54.6875 
L 18.109375 54.6875 
L 18.109375 46.1875 
Q 20.953125 51.171875 25.484375 53.578125 
Q 30.03125 56 36.53125 56 
Q 37.453125 56 38.578125 55.875 
Q 39.703125 55.765625 41.0625 55.515625 
z
" id="DejaVuSans-114"/>
     <path d="M 30.609375 48.390625 
Q 23.390625 48.390625 19.1875 42.75 
Q 14.984375 37.109375 14.984375 27.296875 
Q 14.984375 17.484375 19.15625 11.84375 
Q 23.34375 6.203125 30.609375 6.203125 
Q 37.796875 6.203125 41.984375 11.859375 
Q 46.1875 17.53125 46.1875 27.296875 
Q 46.1875 37.015625 41.984375 42.703125 
Q 37.796875 48.390625 30.609375 48.390625 
z
M 30.609375 56 
Q 42.328125 56 49.015625 48.375 
Q 55.71875 40.765625 55.71875 27.296875 
Q 55.71875 13.875 49.015625 6.21875 
Q 42.328125 -1.421875 30.609375 -1.421875 
Q 18.84375 -1.421875 12.171875 6.21875 
Q 5.515625 13.875 5.515625 27.296875 
Q 5.515625 40.765625 12.171875 48.375 
Q 18.84375 56 30.609375 56 
z
" id="DejaVuSans-111"/>
     <path d="M 18.3125 70.21875 
L 18.3125 54.6875 
L 36.8125 54.6875 
L 36.8125 47.703125 
L 18.3125 47.703125 
L 18.3125 18.015625 
Q 18.3125 11.328125 20.140625 9.421875 
Q 21.96875 7.515625 27.59375 7.515625 
L 36.8125 7.515625 
L 36.8125 0 
L 27.59375 0 
Q 17.1875 0 13.234375 3.875 
Q 9.28125 7.765625 9.28125 18.015625 
L 9.28125 47.703125 
L 2.6875 47.703125 
L 2.6875 54.6875 
L 9.28125 54.6875 
L 9.28125 70.21875 
z
" id="DejaVuSans-116"/>
     <path d="M 34.28125 27.484375 
Q 23.390625 27.484375 19.1875 25 
Q 14.984375 22.515625 14.984375 16.5 
Q 14.984375 11.71875 18.140625 8.90625 
Q 21.296875 6.109375 26.703125 6.109375 
Q 34.1875 6.109375 38.703125 11.40625 
Q 43.21875 16.703125 43.21875 25.484375 
L 43.21875 27.484375 
z
M 52.203125 31.203125 
L 52.203125 0 
L 43.21875 0 
L 43.21875 8.296875 
Q 40.140625 3.328125 35.546875 0.953125 
Q 30.953125 -1.421875 24.3125 -1.421875 
Q 15.921875 -1.421875 10.953125 3.296875 
Q 6 8.015625 6 15.921875 
Q 6 25.140625 12.171875 29.828125 
Q 18.359375 34.515625 30.609375 34.515625 
L 43.21875 34.515625 
L 43.21875 35.40625 
Q 43.21875 41.609375 39.140625 45 
Q 35.0625 48.390625 27.6875 48.390625 
Q 23 48.390625 18.546875 47.265625 
Q 14.109375 46.140625 10.015625 43.890625 
L 10.015625 52.203125 
Q 14.9375 54.109375 19.578125 55.046875 
Q 24.21875 56 28.609375 56 
Q 40.484375 56 46.34375 49.84375 
Q 52.203125 43.703125 52.203125 31.203125 
z
" id="DejaVuSans-97"/>
    </defs>
    <g transform="translate(978.290199 80.4)scale(0.12 -0.12)">
     <use xlink:href="#DejaVuSans-83"/>
     <use x="63.476562" xlink:href="#DejaVuSans-119"/>
     <use x="145.263672" xlink:href="#DejaVuSans-105"/>
     <use x="173.046875" xlink:href="#DejaVuSans-115"/>
     <use x="225.146484" xlink:href="#DejaVuSans-115"/>
     <use x="277.246094" xlink:href="#DejaVuSans-112"/>
     <use x="340.722656" xlink:href="#DejaVuSans-114"/>
     <use x="379.585938" xlink:href="#DejaVuSans-111"/>
     <use x="440.767578" xlink:href="#DejaVuSans-116"/>
     <use x="479.976562" xlink:href="#DejaVuSans-32"/>
     <use x="511.763672" xlink:href="#DejaVuSans-97"/>
     <use x="573.042969" xlink:href="#DejaVuSans-108"/>
     <use x="600.826172" xlink:href="#DejaVuSans-108"/>
     <use x="628.609375" xlink:href="#DejaVuSans-32"/>
     <use x="660.396484" xlink:href="#DejaVuSans-112"/>
     <use x="723.873047" xlink:href="#DejaVuSans-114"/>
     <use x="762.736328" xlink:href="#DejaVuSans-111"/>
     <use x="823.917969" xlink:href="#DejaVuSans-116"/>
     <use x="863.126953" xlink:href="#DejaVuSans-101"/>
     <use x="924.650391" xlink:href="#DejaVuSans-105"/>
     <use x="952.433594" xlink:href="#DejaVuSans-110"/>
     <use x="1015.8125" xlink:href="#DejaVuSans-115"/>
    </g>
   </g>
  </g>
  <g id="axes_3">
   <g id="patch_42">
    <path d="M 497.589305 358.2 
C 497.589305 354.238903 497.221293 350.286358 496.490016 346.393348 
C 495.75874 342.500338 494.667356 338.683674 493.229942 334.992586 
L 433.636364 358.2 
L 497.589305 358.2 
z
" style="fill:#e4f8c7;stroke:#afabb3;stroke-linejoin:miter;stroke-width:0.5;"/>
   </g>
   <g id="patch_43">
    <path d="M 493.229942 334.992586 
C 491.371249 330.219707 488.945875 325.68736 486.005998 321.493051 
C 483.06612 317.298741 479.632973 313.472763 475.780414 310.097426 
L 433.636364 358.2 
L 493.229942 334.992586 
z
" style="fill:#e4f8c7;stroke:#afabb3;stroke-linejoin:miter;stroke-width:0.5;"/>
   </g>
   <g id="patch_44">
    <path d="M 475.780414 310.097426 
C 471.453171 306.306203 466.634068 303.116168 461.453687 300.613759 
C 456.273306 298.111349 450.778863 296.319374 445.119238 295.28639 
L 433.636364 358.2 
L 475.780414 310.097426 
z
" style="fill:#e4f8c7;stroke:#afabb3;stroke-linejoin:miter;stroke-width:0.5;"/>
   </g>
   <g id="patch_45">
    <path d="M 445.119238 295.28639 
C 438.334061 294.047972 431.393006 293.915334 424.565469 294.893622 
C 417.737932 295.87191 411.113399 297.948302 404.948982 301.042211 
L 433.636364 358.2 
L 445.119238 295.28639 
z
" style="fill:#e4f8c7;stroke:#afabb3;stroke-linejoin:miter;stroke-width:0.5;"/>
   </g>
   <g id="patch_46">
    <path d="M 404.948982 301.042211 
C 402.539399 302.251576 400.208699 303.612102 397.970838 305.115643 
C 395.732977 306.619183 393.59243 308.262732 391.562014 310.036447 
L 433.636364 358.2 
L 404.948982 301.042211 
z
" style="fill:#e4f8c7;stroke:#afabb3;stroke-linejoin:miter;stroke-width:0.5;"/>
   </g>
   <g id="patch_47">
    <path d="M 391.562014 310.036447 
C 388.18527 312.986278 385.128086 316.283063 382.440938 319.872372 
C 379.753789 323.461681 377.451545 327.323654 375.572215 331.394529 
L 433.636364 358.2 
L 391.562014 310.036447 
z
" style="fill:#e4f8c7;stroke:#afabb3;stroke-linejoin:miter;stroke-width:0.5;"/>
   </g>
   <g id="patch_48">
    <path d="M 375.572215 331.394529 
C 373.299797 336.316881 371.66251 341.508278 370.699786 346.843687 
C 369.737061 352.179096 369.456692 357.615337 369.86543 363.021478 
L 433.636364 358.2 
L 375.572215 331.394529 
z
" style="fill:#e4f8c7;stroke:#afabb3;stroke-linejoin:miter;stroke-width:0.5;"/>
   </g>
   <g id="patch_49">
    <path d="M 369.86543 363.021478 
C 369.880105 363.215579 369.895666 363.409611 369.912113 363.60357 
C 369.92856 363.797528 369.945892 363.991411 369.96411 364.185211 
L 433.636364 358.2 
L 369.86543 363.021478 
z
" style="fill:#e4f8c7;stroke:#afabb3;stroke-linejoin:miter;stroke-width:0.5;"/>
   </g>
   <g id="patch_50">
    <path d="M 369.96411 364.185211 
C 370.151694 366.180779 370.432989 368.166425 370.807065 370.135573 
C 371.181141 372.104721 371.647583 374.055196 372.204847 375.980536 
L 433.636364 358.2 
L 369.96411 364.185211 
z
" style="fill:#e4f8c7;stroke:#afabb3;stroke-linejoin:miter;stroke-width:0.5;"/>
   </g>
   <g id="patch_51">
    <path d="M 372.204847 375.980536 
C 373.334327 379.882873 374.833075 383.668725 376.680763 387.286737 
C 378.528451 390.904749 380.716684 394.338486 383.215781 397.541372 
L 433.636364 358.2 
L 372.204847 375.980536 
z
" style="fill:#ffc561;stroke:#afabb3;stroke-linejoin:miter;stroke-width:0.5;"/>
   </g>
   <g id="patch_52">
    <path d="M 383.215781 397.541372 
C 385.426808 400.375063 387.87279 403.017324 390.527733 405.440075 
C 393.182676 407.862826 396.037142 410.057455 399.060796 412.000639 
L 433.636364 358.2 
L 383.215781 397.541372 
z
" style="fill:#ffc561;stroke:#afabb3;stroke-linejoin:miter;stroke-width:0.5;"/>
   </g>
   <g id="patch_53">
    <path d="M 399.060796 412.000639 
C 399.060796 412.000639 399.060796 412.000639 399.060796 412.000639 
L 433.636364 358.2 
L 399.060796 412.000639 
z
" style="fill:#ffc561;stroke:#afabb3;stroke-linejoin:miter;stroke-width:0.5;"/>
   </g>
   <g id="patch_54">
    <path d="M 399.060796 412.000639 
C 400.219435 412.745252 401.401826 413.452241 402.606119 414.120502 
C 403.810411 414.788763 405.035977 415.417947 406.280898 416.007069 
L 433.636364 358.2 
L 399.060796 412.000639 
z
" style="fill:#ffc561;stroke:#afabb3;stroke-linejoin:miter;stroke-width:0.5;"/>
   </g>
   <g id="patch_55">
    <path d="M 406.280898 416.007069 
C 407.958482 416.800935 409.669829 417.521399 411.410078 418.166415 
C 413.150327 418.811431 414.91783 419.380387 416.707566 419.871667 
L 433.636364 358.2 
L 406.280898 416.007069 
z
" style="fill:#ffc561;stroke:#afabb3;stroke-linejoin:miter;stroke-width:0.5;"/>
   </g>
   <g id="patch_56">
    <path d="M 416.707566 419.871667 
C 419.306612 420.585102 421.948161 421.133525 424.616405 421.513656 
C 427.28465 421.893787 429.974258 422.104864 432.669136 422.145627 
L 433.636364 358.2 
L 416.707566 419.871667 
z
" style="fill:#ffc561;stroke:#afabb3;stroke-linejoin:miter;stroke-width:0.5;"/>
   </g>
   <g id="patch_57">
    <path d="M 432.669136 422.145627 
C 435.964942 422.195478 439.259676 421.990453 442.523876 421.532384 
C 445.788075 421.074314 449.011982 420.364571 452.166766 419.4095 
L 433.636364 358.2 
L 432.669136 422.145627 
z
" style="fill:#f93b3b;stroke:#afabb3;stroke-linejoin:miter;stroke-width:0.5;"/>
   </g>
   <g id="patch_58">
    <path d="M 452.166766 419.4095 
C 455.070886 418.530314 457.908757 417.445561 460.658867 416.163463 
C 463.408976 414.881365 466.064358 413.40517 468.604882 411.746068 
L 433.636364 358.2 
L 452.166766 419.4095 
z
" style="fill:#f93b3b;stroke:#afabb3;stroke-linejoin:miter;stroke-width:0.5;"/>
   </g>
   <g id="patch_59">
    <path d="M 468.604882 411.746068 
C 470.216276 410.69374 471.779346 409.569208 473.28932 408.375908 
C 474.799294 407.182608 476.254632 405.921755 477.650891 404.597199 
L 433.636364 358.2 
L 468.604882 411.746068 
z
" style="fill:#f93b3b;stroke:#afabb3;stroke-linejoin:miter;stroke-width:0.5;"/>
   </g>
   <g id="patch_60">
    <path d="M 477.650891 404.597199 
C 479.591275 402.756461 481.414277 400.795811 483.109154 398.726802 
C 484.804032 396.657793 486.367449 394.484497 487.790193 392.219722 
L 433.636364 358.2 
L 477.650891 404.597199 
z
" style="fill:#34cceb;stroke:#afabb3;stroke-linejoin:miter;stroke-width:0.5;"/>
   </g>
   <g id="patch_61">
    <path d="M 487.790193 392.219722 
C 490.975677 387.148952 493.433219 381.655804 495.090719 375.901439 
C 496.748218 370.147073 497.589305 364.188319 497.589305 358.199995 
L 433.636364 358.2 
L 487.790193 392.219722 
z
" style="fill:#34cceb;stroke:#afabb3;stroke-linejoin:miter;stroke-width:0.5;"/>
   </g>
   <g id="matplotlib.axis_5"/>
   <g id="matplotlib.axis_6"/>
   <g id="text_43">
    <!-- A -->
    <g transform="translate(502.775382 347.972058)scale(0.1 -0.1)">
     <use xlink:href="#DejaVuSans-65"/>
    </g>
   </g>
   <g id="text_44">
    <!-- G -->
    <g transform="translate(491.242961 320.581731)scale(0.1 -0.1)">
     <use xlink:href="#DejaVuSans-71"/>
    </g>
   </g>
   <g id="text_45">
    <!-- V -->
    <g transform="translate(464.235419 297.614509)scale(0.1 -0.1)">
     <use xlink:href="#DejaVuSans-86"/>
    </g>
   </g>
   <g id="text_46">
    <!-- L -->
    <g transform="translate(418.086504 291.322359)scale(0.1 -0.1)">
     <use xlink:href="#DejaVuSans-76"/>
    </g>
   </g>
   <g id="text_47">
    <!-- I -->
    <g transform="translate(391.454286 302.566582)scale(0.1 -0.1)">
     <use xlink:href="#DejaVuSans-73"/>
    </g>
   </g>
   <g id="text_48">
    <!-- P -->
    <g transform="translate(371.291708 318.798984)scale(0.1 -0.1)">
     <use xlink:href="#DejaVuSans-80"/>
    </g>
   </g>
   <g id="text_49">
    <!-- F -->
    <g transform="translate(358.654565 348.467431)scale(0.1 -0.1)">
     <use xlink:href="#DejaVuSans-70"/>
    </g>
   </g>
   <g id="text_50">
    <!-- W -->
    <g transform="translate(353.652188 366.903302)scale(0.1 -0.1)">
     <use xlink:href="#DejaVuSans-87"/>
    </g>
   </g>
   <g id="text_51">
    <!-- M -->
    <g transform="translate(355.89601 374.088505)scale(0.1 -0.1)">
     <use xlink:href="#DejaVuSans-77"/>
    </g>
   </g>
   <g id="text_52">
    <!-- S -->
    <g transform="translate(364.636766 392.954785)scale(0.1 -0.1)">
     <use xlink:href="#DejaVuSans-83"/>
    </g>
   </g>
   <g id="text_53">
    <!-- T -->
    <g transform="translate(380.109058 412.923458)scale(0.1 -0.1)">
     <use xlink:href="#DejaVuSans-84"/>
    </g>
   </g>
   <g id="text_54">
    <!-- C -->
    <g transform="translate(388.620427 420.140078)scale(0.1 -0.1)">
     <use xlink:href="#DejaVuSans-67"/>
    </g>
   </g>
   <g id="text_55">
    <!-- Y -->
    <g transform="translate(393.395282 422.471928)scale(0.1 -0.1)">
     <use xlink:href="#DejaVuSans-89"/>
    </g>
   </g>
   <g id="text_56">
    <!-- N -->
    <g transform="translate(401.7062 426.922431)scale(0.1 -0.1)">
     <use xlink:href="#DejaVuSans-78"/>
    </g>
   </g>
   <g id="text_57">
    <!-- Q -->
    <g transform="translate(415.842534 430.604397)scale(0.1 -0.1)">
     <use xlink:href="#DejaVuSans-81"/>
    </g>
   </g>
   <g id="text_58">
    <!-- K -->
    <g transform="translate(443.412627 430.624997)scale(0.1 -0.1)">
     <use xlink:href="#DejaVuSans-75"/>
    </g>
   </g>
   <g id="text_59">
    <!-- R -->
    <g transform="translate(463.361117 424.719184)scale(0.1 -0.1)">
     <use xlink:href="#DejaVuSans-82"/>
    </g>
   </g>
   <g id="text_60">
    <!-- H -->
    <g transform="translate(477.254615 416.152874)scale(0.1 -0.1)">
     <use xlink:href="#DejaVuSans-72"/>
    </g>
   </g>
   <g id="text_61">
    <!-- D -->
    <g transform="translate(488.056433 405.538857)scale(0.1 -0.1)">
     <use xlink:href="#DejaVuSans-68"/>
    </g>
   </g>
   <g id="text_62">
    <!-- E -->
    <g transform="translate(501.236154 380.430958)scale(0.1 -0.1)">
     <use xlink:href="#DejaVuSans-69"/>
    </g>
   </g>
   <g id="text_63">
    <!-- C-terminal sequence -->
    <defs>
     <path d="M 4.890625 31.390625 
L 31.203125 31.390625 
L 31.203125 23.390625 
L 4.890625 23.390625 
z
" id="DejaVuSans-45"/>
     <path d="M 52 44.1875 
Q 55.375 50.25 60.0625 53.125 
Q 64.75 56 71.09375 56 
Q 79.640625 56 84.28125 50.015625 
Q 88.921875 44.046875 88.921875 33.015625 
L 88.921875 0 
L 79.890625 0 
L 79.890625 32.71875 
Q 79.890625 40.578125 77.09375 44.375 
Q 74.3125 48.1875 68.609375 48.1875 
Q 61.625 48.1875 57.5625 43.546875 
Q 53.515625 38.921875 53.515625 30.90625 
L 53.515625 0 
L 44.484375 0 
L 44.484375 32.71875 
Q 44.484375 40.625 41.703125 44.40625 
Q 38.921875 48.1875 33.109375 48.1875 
Q 26.21875 48.1875 22.15625 43.53125 
Q 18.109375 38.875 18.109375 30.90625 
L 18.109375 0 
L 9.078125 0 
L 9.078125 54.6875 
L 18.109375 54.6875 
L 18.109375 46.1875 
Q 21.1875 51.21875 25.484375 53.609375 
Q 29.78125 56 35.6875 56 
Q 41.65625 56 45.828125 52.96875 
Q 50 49.953125 52 44.1875 
z
" id="DejaVuSans-109"/>
    </defs>
    <g transform="translate(371.397614 272.258824)scale(0.12 -0.12)">
     <use xlink:href="#DejaVuSans-67"/>
     <use x="69.824219" xlink:href="#DejaVuSans-45"/>
     <use x="105.908203" xlink:href="#DejaVuSans-116"/>
     <use x="145.117188" xlink:href="#DejaVuSans-101"/>
     <use x="206.640625" xlink:href="#DejaVuSans-114"/>
     <use x="246.003906" xlink:href="#DejaVuSans-109"/>
     <use x="343.416016" xlink:href="#DejaVuSans-105"/>
     <use x="371.199219" xlink:href="#DejaVuSans-110"/>
     <use x="434.578125" xlink:href="#DejaVuSans-97"/>
     <use x="495.857422" xlink:href="#DejaVuSans-108"/>
     <use x="523.640625" xlink:href="#DejaVuSans-32"/>
     <use x="555.427734" xlink:href="#DejaVuSans-115"/>
     <use x="607.527344" xlink:href="#DejaVuSans-101"/>
     <use x="669.050781" xlink:href="#DejaVuSans-113"/>
     <use x="732.527344" xlink:href="#DejaVuSans-117"/>
     <use x="795.90625" xlink:href="#DejaVuSans-101"/>
     <use x="857.429688" xlink:href="#DejaVuSans-110"/>
     <use x="920.808594" xlink:href="#DejaVuSans-99"/>
     <use x="975.789062" xlink:href="#DejaVuSans-101"/>
    </g>
   </g>
  </g>
  <g id="axes_4">
   <g id="patch_62">
    <path d="M 1106.316578 358.2 
C 1106.316578 352.707827 1105.609089 347.238462 1104.211596 341.927062 
C 1102.814103 336.615661 1100.738213 331.50634 1098.035222 326.725356 
L 1042.363636 358.2 
L 1106.316578 358.2 
z
" style="fill:#e4f8c7;stroke:#afabb3;stroke-linejoin:miter;stroke-width:0.5;"/>
   </g>
   <g id="patch_63">
    <path d="M 1098.035222 326.725356 
C 1095.461032 322.172192 1092.337959 317.951975 1088.736044 314.159354 
C 1085.13413 310.366734 1081.080505 307.030277 1076.666082 304.224812 
L 1042.363636 358.2 
L 1098.035222 326.725356 
z
" style="fill:#e4f8c7;stroke:#afabb3;stroke-linejoin:miter;stroke-width:0.5;"/>
   </g>
   <g id="patch_64">
    <path d="M 1076.666082 304.224812 
C 1072.1732 301.369484 1067.34133 299.086276 1062.282701 297.428217 
C 1057.224072 295.770159 1051.978153 294.750188 1046.666789 294.391995 
L 1042.363636 358.2 
L 1076.666082 304.224812 
z
" style="fill:#e4f8c7;stroke:#afabb3;stroke-linejoin:miter;stroke-width:0.5;"/>
   </g>
   <g id="patch_65">
    <path d="M 1046.666789 294.391995 
C 1040.860526 294.000426 1035.027891 294.403201 1029.330564 295.589157 
C 1023.633238 296.775112 1018.124354 298.733187 1012.956618 301.409103 
L 1042.363636 358.2 
L 1046.666789 294.391995 
z
" style="fill:#e4f8c7;stroke:#afabb3;stroke-linejoin:miter;stroke-width:0.5;"/>
   </g>
   <g id="patch_66">
    <path d="M 1012.956618 301.409103 
C 1011.430414 302.19939 1009.936686 303.05088 1008.479075 303.961497 
C 1007.021463 304.872115 1005.601152 305.84112 1004.221601 306.866153 
L 1042.363636 358.2 
L 1012.956618 301.409103 
z
" style="fill:#e4f8c7;stroke:#afabb3;stroke-linejoin:miter;stroke-width:0.5;"/>
   </g>
   <g id="patch_67">
    <path d="M 1004.221601 306.866153 
C 1002.960482 307.803189 1001.734322 308.786379 1000.545616 309.813722 
C 999.35691 310.841066 998.206466 311.911865 997.096626 313.02394 
L 1042.363636 358.2 
L 1004.221601 306.866153 
z
" style="fill:#e4f8c7;stroke:#afabb3;stroke-linejoin:miter;stroke-width:0.5;"/>
   </g>
   <g id="patch_68">
    <path d="M 997.096626 313.02394 
C 993.86859 316.258474 990.996515 319.829699 988.529645 323.676384 
C 986.062775 327.523068 984.01529 331.623101 982.422295 335.906183 
L 1042.363636 358.2 
L 997.096626 313.02394 
z
" style="fill:#e4f8c7;stroke:#afabb3;stroke-linejoin:miter;stroke-width:0.5;"/>
   </g>
   <g id="patch_69">
    <path d="M 982.422295 335.906183 
C 982.309899 336.208383 982.199789 336.511428 982.091976 336.815293 
C 981.984163 337.119158 981.87865 337.423834 981.775445 337.729295 
L 1042.363636 358.2 
L 982.422295 335.906183 
z
" style="fill:#e4f8c7;stroke:#afabb3;stroke-linejoin:miter;stroke-width:0.5;"/>
   </g>
   <g id="patch_70">
    <path d="M 981.775445 337.729295 
C 981.238493 339.318538 980.764279 340.928293 980.353902 342.554824 
C 979.943525 344.181355 979.597304 345.823402 979.316041 347.477157 
L 1042.363636 358.2 
L 981.775445 337.729295 
z
" style="fill:#e4f8c7;stroke:#afabb3;stroke-linejoin:miter;stroke-width:0.5;"/>
   </g>
   <g id="patch_71">
    <path d="M 979.316041 347.477157 
C 977.634295 357.365396 978.302172 367.511984 981.265537 377.094469 
C 984.228902 386.676954 989.405464 395.429239 996.375628 402.641893 
L 1042.363636 358.2 
L 979.316041 347.477157 
z
" style="fill:#ffc561;stroke:#afabb3;stroke-linejoin:miter;stroke-width:0.5;"/>
   </g>
   <g id="patch_72">
    <path d="M 996.375628 402.641893 
C 1000.692729 407.109183 1005.637815 410.923684 1011.054849 413.96503 
C 1016.471883 417.006376 1022.303282 419.242239 1028.36504 420.602067 
L 1042.363636 358.2 
L 996.375628 402.641893 
z
" style="fill:#ffc561;stroke:#afabb3;stroke-linejoin:miter;stroke-width:0.5;"/>
   </g>
   <g id="patch_73">
    <path d="M 1028.36504 420.602067 
C 1028.36504 420.602067 1028.36504 420.602067 1028.36504 420.602067 
L 1042.363636 358.2 
L 1028.36504 420.602067 
z
" style="fill:#ffc561;stroke:#afabb3;stroke-linejoin:miter;stroke-width:0.5;"/>
   </g>
   <g id="patch_74">
    <path d="M 1028.36504 420.602067 
C 1030.038692 420.977516 1031.726771 421.28548 1033.425182 421.525214 
C 1035.123593 421.764947 1036.830961 421.936255 1038.543145 422.038723 
L 1042.363636 358.2 
L 1028.36504 420.602067 
z
" style="fill:#ffc561;stroke:#afabb3;stroke-linejoin:miter;stroke-width:0.5;"/>
   </g>
   <g id="patch_75">
    <path d="M 1038.543145 422.038723 
C 1042.253578 422.260777 1045.976318 422.158923 1049.669059 421.734317 
C 1053.3618 421.309712 1057.010502 420.563969 1060.573704 419.505564 
L 1042.363636 358.2 
L 1038.543145 422.038723 
z
" style="fill:#ffc561;stroke:#afabb3;stroke-linejoin:miter;stroke-width:0.5;"/>
   </g>
   <g id="patch_76">
    <path d="M 1060.573704 419.505564 
C 1061.50426 419.229153 1062.428402 418.931591 1063.345412 418.613109 
C 1064.262422 418.294627 1065.172061 417.955307 1066.073624 417.595414 
L 1042.363636 358.2 
L 1060.573704 419.505564 
z
" style="fill:#ffc561;stroke:#afabb3;stroke-linejoin:miter;stroke-width:0.5;"/>
   </g>
   <g id="patch_77">
    <path d="M 1066.073624 417.595414 
C 1067.969414 416.838635 1069.827886 415.991526 1071.642655 415.056994 
C 1073.457424 414.122463 1075.22641 413.101581 1076.943537 411.997855 
L 1042.363636 358.2 
L 1066.073624 417.595414 
z
" style="fill:#f93b3b;stroke:#afabb3;stroke-linejoin:miter;stroke-width:0.5;"/>
   </g>
   <g id="patch_78">
    <path d="M 1076.943537 411.997855 
C 1078.054496 411.283759 1079.143068 410.535421 1080.207688 409.753918 
C 1081.272308 408.972415 1082.312466 408.158121 1083.326663 407.31221 
L 1042.363636 358.2 
L 1076.943537 411.997855 
z
" style="fill:#f93b3b;stroke:#afabb3;stroke-linejoin:miter;stroke-width:0.5;"/>
   </g>
   <g id="patch_79">
    <path d="M 1083.326663 407.31221 
C 1085.144637 405.795892 1086.877015 404.1798 1088.515798 402.471398 
C 1090.15458 400.762996 1091.697241 398.964917 1093.136654 397.085465 
L 1042.363636 358.2 
L 1083.326663 407.31221 
z
" style="fill:#f93b3b;stroke:#afabb3;stroke-linejoin:miter;stroke-width:0.5;"/>
   </g>
   <g id="patch_80">
    <path d="M 1093.136654 397.085465 
C 1095.986315 393.364643 1098.418349 389.341819 1100.388907 385.089527 
C 1102.359465 380.837234 1103.856631 376.381183 1104.853412 371.801716 
L 1042.363636 358.2 
L 1093.136654 397.085465 
z
" style="fill:#34cceb;stroke:#afabb3;stroke-linejoin:miter;stroke-width:0.5;"/>
   </g>
   <g id="patch_81">
    <path d="M 1104.853412 371.801716 
C 1105.339382 369.569045 1105.705347 367.311934 1105.949734 365.040093 
C 1106.194121 362.768253 1106.316578 360.484947 1106.316578 358.2 
L 1042.363636 358.2 
L 1104.853412 371.801716 
z
" style="fill:#34cceb;stroke:#afabb3;stroke-linejoin:miter;stroke-width:0.5;"/>
   </g>
   <g id="matplotlib.axis_7"/>
   <g id="matplotlib.axis_8"/>
   <g id="text_64">
    <!-- A -->
    <g transform="translate(1110.396392 343.059143)scale(0.1 -0.1)">
     <use xlink:href="#DejaVuSans-65"/>
    </g>
   </g>
   <g id="text_65">
    <!-- G -->
    <g transform="translate(1093.373285 312.514665)scale(0.1 -0.1)">
     <use xlink:href="#DejaVuSans-71"/>
    </g>
   </g>
   <g id="text_66">
    <!-- V -->
    <g transform="translate(1064.274607 294.110414)scale(0.1 -0.1)">
     <use xlink:href="#DejaVuSans-86"/>
    </g>
   </g>
   <g id="text_67">
    <!-- L -->
    <g transform="translate(1022.455382 292.087447)scale(0.1 -0.1)">
     <use xlink:href="#DejaVuSans-76"/>
    </g>
   </g>
   <g id="text_68">
    <!-- I -->
    <g transform="translate(1002.140619 301.297022)scale(0.1 -0.1)">
     <use xlink:href="#DejaVuSans-73"/>
    </g>
   </g>
   <g id="text_69">
    <!-- P -->
    <g transform="translate(990.334126 307.73447)scale(0.1 -0.1)">
     <use xlink:href="#DejaVuSans-80"/>
    </g>
   </g>
   <g id="text_70">
    <!-- F -->
    <g transform="translate(977.394684 322.983397)scale(0.1 -0.1)">
     <use xlink:href="#DejaVuSans-70"/>
    </g>
   </g>
   <g id="text_71">
    <!-- W -->
    <g transform="translate(966.17731 337.436197)scale(0.1 -0.1)">
     <use xlink:href="#DejaVuSans-87"/>
    </g>
   </g>
   <g id="text_72">
    <!-- M -->
    <g transform="translate(965.524804 343.749681)scale(0.1 -0.1)">
     <use xlink:href="#DejaVuSans-77"/>
    </g>
   </g>
   <g id="text_73">
    <!-- S -->
    <g transform="translate(968.80729 381.743291)scale(0.1 -0.1)">
     <use xlink:href="#DejaVuSans-83"/>
    </g>
   </g>
   <g id="text_74">
    <!-- T -->
    <g transform="translate(1001.816158 422.300908)scale(0.1 -0.1)">
     <use xlink:href="#DejaVuSans-84"/>
    </g>
   </g>
   <g id="text_75">
    <!-- C -->
    <g transform="translate(1019.982368 429.601649)scale(0.1 -0.1)">
     <use xlink:href="#DejaVuSans-67"/>
    </g>
   </g>
   <g id="text_76">
    <!-- Y -->
    <g transform="translate(1026.423524 430.61711)scale(0.1 -0.1)">
     <use xlink:href="#DejaVuSans-89"/>
    </g>
   </g>
   <g id="text_77">
    <!-- N -->
    <g transform="translate(1050.399601 430.847124)scale(0.1 -0.1)">
     <use xlink:href="#DejaVuSans-78"/>
    </g>
   </g>
   <g id="text_78">
    <!-- Q -->
    <g transform="translate(1065.44359 427.413795)scale(0.1 -0.1)">
     <use xlink:href="#DejaVuSans-81"/>
    </g>
   </g>
   <g id="text_79">
    <!-- K -->
    <g transform="translate(1074.570557 423.502068)scale(0.1 -0.1)">
     <use xlink:href="#DejaVuSans-75"/>
    </g>
   </g>
   <g id="text_80">
    <!-- R -->
    <g transform="translate(1083.992094 417.668684)scale(0.1 -0.1)">
     <use xlink:href="#DejaVuSans-82"/>
    </g>
   </g>
   <g id="text_81">
    <!-- H -->
    <g transform="translate(1093.131014 409.657913)scale(0.1 -0.1)">
     <use xlink:href="#DejaVuSans-72"/>
    </g>
   </g>
   <g id="text_82">
    <!-- D -->
    <g transform="translate(1106.191434 390.537854)scale(0.1 -0.1)">
     <use xlink:href="#DejaVuSans-68"/>
    </g>
   </g>
   <g id="text_83">
    <!-- E -->
    <g transform="translate(1112.308344 368.483478)scale(0.1 -0.1)">
     <use xlink:href="#DejaVuSans-69"/>
    </g>
   </g>
   <g id="text_84">
    <!-- First aminoacid -->
    <defs>
     <path d="M 45.40625 46.390625 
L 45.40625 75.984375 
L 54.390625 75.984375 
L 54.390625 0 
L 45.40625 0 
L 45.40625 8.203125 
Q 42.578125 3.328125 38.25 0.953125 
Q 33.9375 -1.421875 27.875 -1.421875 
Q 17.96875 -1.421875 11.734375 6.484375 
Q 5.515625 14.40625 5.515625 27.296875 
Q 5.515625 40.1875 11.734375 48.09375 
Q 17.96875 56 27.875 56 
Q 33.9375 56 38.25 53.625 
Q 42.578125 51.265625 45.40625 46.390625 
z
M 14.796875 27.296875 
Q 14.796875 17.390625 18.875 11.75 
Q 22.953125 6.109375 30.078125 6.109375 
Q 37.203125 6.109375 41.296875 11.75 
Q 45.40625 17.390625 45.40625 27.296875 
Q 45.40625 37.203125 41.296875 42.84375 
Q 37.203125 48.484375 30.078125 48.484375 
Q 22.953125 48.484375 18.875 42.84375 
Q 14.796875 37.203125 14.796875 27.296875 
z
" id="DejaVuSans-100"/>
    </defs>
    <g transform="translate(996.715824 272.258824)scale(0.12 -0.12)">
     <use xlink:href="#DejaVuSans-70"/>
     <use x="50.269531" xlink:href="#DejaVuSans-105"/>
     <use x="78.052734" xlink:href="#DejaVuSans-114"/>
     <use x="119.166016" xlink:href="#DejaVuSans-115"/>
     <use x="171.265625" xlink:href="#DejaVuSans-116"/>
     <use x="210.474609" xlink:href="#DejaVuSans-32"/>
     <use x="242.261719" xlink:href="#DejaVuSans-97"/>
     <use x="303.541016" xlink:href="#DejaVuSans-109"/>
     <use x="400.953125" xlink:href="#DejaVuSans-105"/>
     <use x="428.736328" xlink:href="#DejaVuSans-110"/>
     <use x="492.115234" xlink:href="#DejaVuSans-111"/>
     <use x="553.296875" xlink:href="#DejaVuSans-97"/>
     <use x="614.576172" xlink:href="#DejaVuSans-99"/>
     <use x="669.556641" xlink:href="#DejaVuSans-105"/>
     <use x="697.339844" xlink:href="#DejaVuSans-100"/>
    </g>
   </g>
  </g>
  <g id="axes_5">
   <g id="patch_82">
    <path d="M 497.589305 550.058824 
C 497.589305 545.614638 497.126055 541.182534 496.207071 536.834402 
C 495.288086 532.486271 493.918362 528.245751 492.120117 524.181628 
L 433.636364 550.058824 
L 497.589305 550.058824 
z
" style="fill:#e4f8c7;stroke:#afabb3;stroke-linejoin:miter;stroke-width:0.5;"/>
   </g>
   <g id="patch_83">
    <path d="M 492.120117 524.181628 
C 489.838591 519.025265 486.885117 514.193208 483.336594 509.811267 
C 479.78807 505.429325 475.675562 501.535861 471.106146 498.232246 
L 433.636364 550.058824 
L 492.120117 524.181628 
z
" style="fill:#e4f8c7;stroke:#afabb3;stroke-linejoin:miter;stroke-width:0.5;"/>
   </g>
   <g id="patch_84">
    <path d="M 471.106146 498.232246 
C 467.617511 495.71002 463.883103 493.546474 459.959778 491.77455 
C 456.036452 490.002625 451.94422 488.63136 447.745385 487.681631 
L 433.636364 550.058824 
L 471.106146 498.232246 
z
" style="fill:#e4f8c7;stroke:#afabb3;stroke-linejoin:miter;stroke-width:0.5;"/>
   </g>
   <g id="patch_85">
    <path d="M 447.745385 487.681631 
C 438.420645 485.572479 428.740547 485.580851 419.419469 487.706128 
C 410.098391 489.831406 401.371413 494.019989 393.882575 499.962766 
L 433.636364 550.058824 
L 447.745385 487.681631 
z
" style="fill:#e4f8c7;stroke:#afabb3;stroke-linejoin:miter;stroke-width:0.5;"/>
   </g>
   <g id="patch_86">
    <path d="M 393.882575 499.962766 
C 391.897763 501.537816 390.00831 503.229433 388.224209 505.028668 
C 386.440109 506.827903 384.764514 508.731578 383.206286 510.729624 
L 433.636364 550.058824 
L 393.882575 499.962766 
z
" style="fill:#e4f8c7;stroke:#afabb3;stroke-linejoin:miter;stroke-width:0.5;"/>
   </g>
   <g id="patch_87">
    <path d="M 383.206286 510.729624 
C 380.92515 513.654623 378.902812 516.772548 377.162158 520.048113 
C 375.421504 523.323679 373.969125 526.744483 372.821457 530.271814 
L 433.636364 550.058824 
L 383.206286 510.729624 
z
" style="fill:#e4f8c7;stroke:#afabb3;stroke-linejoin:miter;stroke-width:0.5;"/>
   </g>
   <g id="patch_88">
    <path d="M 372.821457 530.271814 
C 371.436584 534.528185 370.502379 538.91821 370.034212 543.369658 
C 369.566044 547.821106 369.566495 552.30943 370.035558 556.760783 
L 433.636364 550.058824 
L 372.821457 530.271814 
z
" style="fill:#e4f8c7;stroke:#afabb3;stroke-linejoin:miter;stroke-width:0.5;"/>
   </g>
   <g id="patch_89">
    <path d="M 370.035558 556.760783 
C 370.080131 557.183769 370.128922 557.606299 370.181924 558.028311 
C 370.234926 558.450323 370.292137 558.871796 370.353547 559.292667 
L 433.636364 550.058824 
L 370.035558 556.760783 
z
" style="fill:#e4f8c7;stroke:#afabb3;stroke-linejoin:miter;stroke-width:0.5;"/>
   </g>
   <g id="patch_90">
    <path d="M 370.353547 559.292667 
C 370.526647 560.478979 370.733071 561.66019 370.972573 562.834898 
C 371.212076 564.009607 371.484564 565.177348 371.789713 566.336738 
L 433.636364 550.058824 
L 370.353547 559.292667 
z
" style="fill:#e4f8c7;stroke:#afabb3;stroke-linejoin:miter;stroke-width:0.5;"/>
   </g>
   <g id="patch_91">
    <path d="M 371.789713 566.336738 
C 373.263261 571.935368 375.490228 577.308073 378.409515 582.30745 
C 381.328802 587.306826 384.913466 591.886732 389.065157 595.921513 
L 433.636364 550.058824 
L 371.789713 566.336738 
z
" style="fill:#ffc561;stroke:#afabb3;stroke-linejoin:miter;stroke-width:0.5;"/>
   </g>
   <g id="patch_92">
    <path d="M 389.065157 595.921513 
C 391.922426 598.698321 395.032947 601.20205 398.35613 603.400026 
C 401.679314 605.598002 405.20064 607.480622 408.874158 609.02332 
L 433.636364 550.058824 
L 389.065157 595.921513 
z
" style="fill:#ffc561;stroke:#afabb3;stroke-linejoin:miter;stroke-width:0.5;"/>
   </g>
   <g id="patch_93">
    <path d="M 408.874158 609.02332 
C 408.874158 609.02332 408.874158 609.02332 408.874158 609.02332 
L 433.636364 550.058824 
L 408.874158 609.02332 
z
" style="fill:#ffc561;stroke:#afabb3;stroke-linejoin:miter;stroke-width:0.5;"/>
   </g>
   <g id="patch_94">
    <path d="M 408.874158 609.02332 
C 410.418439 609.671842 411.987601 610.259448 413.578014 610.784776 
C 415.168427 611.310104 416.778864 611.772751 418.4056 612.171644 
L 433.636364 550.058824 
L 408.874158 609.02332 
z
" style="fill:#ffc561;stroke:#afabb3;stroke-linejoin:miter;stroke-width:0.5;"/>
   </g>
   <g id="patch_95">
    <path d="M 418.4056 612.171644 
C 420.471458 612.678216 422.561303 613.081408 424.667342 613.379715 
C 426.77338 613.678023 428.892991 613.871075 431.018268 613.958153 
L 433.636364 550.058824 
L 418.4056 612.171644 
z
" style="fill:#ffc561;stroke:#afabb3;stroke-linejoin:miter;stroke-width:0.5;"/>
   </g>
   <g id="patch_96">
    <path d="M 431.018268 613.958153 
C 433.081819 614.042701 435.148255 614.02724 437.21031 613.911823 
C 439.272365 613.796407 441.327619 613.581171 443.368846 613.266873 
L 433.636364 550.058824 
L 431.018268 613.958153 
z
" style="fill:#ffc561;stroke:#afabb3;stroke-linejoin:miter;stroke-width:0.5;"/>
   </g>
   <g id="patch_97">
    <path d="M 443.368846 613.266873 
C 445.622091 612.919928 447.855173 612.452747 450.058526 611.867328 
C 452.26188 611.28191 454.432355 610.579092 456.560653 609.761886 
L 433.636364 550.058824 
L 443.368846 613.266873 
z
" style="fill:#f93b3b;stroke:#afabb3;stroke-linejoin:miter;stroke-width:0.5;"/>
   </g>
   <g id="patch_98">
    <path d="M 456.560653 609.761886 
C 457.631819 609.350588 458.691721 608.910538 459.739209 608.442213 
C 460.786698 607.973887 461.821393 607.477456 462.84217 606.953459 
L 433.636364 550.058824 
L 456.560653 609.761886 
z
" style="fill:#f93b3b;stroke:#afabb3;stroke-linejoin:miter;stroke-width:0.5;"/>
   </g>
   <g id="patch_99">
    <path d="M 462.84217 606.953459 
C 464.68333 606.008334 466.477527 604.974393 468.218428 603.855287 
C 469.959328 602.736182 471.644879 601.53323 473.269131 600.25068 
L 433.636364 550.058824 
L 462.84217 606.953459 
z
" style="fill:#f93b3b;stroke:#afabb3;stroke-linejoin:miter;stroke-width:0.5;"/>
   </g>
   <g id="patch_100">
    <path d="M 473.269131 600.25068 
C 477.038499 597.274291 480.460612 593.882738 483.470692 590.14022 
C 486.480773 586.397703 489.059706 582.327986 491.158674 578.008107 
L 433.636364 550.058824 
L 473.269131 600.25068 
z
" style="fill:#34cceb;stroke:#afabb3;stroke-linejoin:miter;stroke-width:0.5;"/>
   </g>
   <g id="patch_101">
    <path d="M 491.158674 578.008107 
C 493.267793 573.667338 494.878804 569.101745 495.960916 564.398587 
C 497.043029 559.69543 497.589305 554.884861 497.589305 550.058821 
L 433.636364 550.058824 
L 491.158674 578.008107 
z
" style="fill:#34cceb;stroke:#afabb3;stroke-linejoin:miter;stroke-width:0.5;"/>
   </g>
   <g id="matplotlib.axis_9"/>
   <g id="matplotlib.axis_10"/>
   <g id="text_85">
    <!-- A -->
    <g transform="translate(502.464141 538.271335)scale(0.1 -0.1)">
     <use xlink:href="#DejaVuSans-65"/>
    </g>
   </g>
   <g id="text_86">
    <!-- G -->
    <g transform="translate(488.306617 508.545886)scale(0.1 -0.1)">
     <use xlink:href="#DejaVuSans-71"/>
    </g>
   </g>
   <g id="text_87">
    <!-- V -->
    <g transform="translate(462.592119 488.705498)scale(0.1 -0.1)">
     <use xlink:href="#DejaVuSans-86"/>
    </g>
   </g>
   <g id="text_88">
    <!-- L -->
    <g transform="translate(412.425904 484.230234)scale(0.1 -0.1)">
     <use xlink:href="#DejaVuSans-76"/>
    </g>
   </g>
   <g id="text_89">
    <!-- I -->
    <g transform="translate(380.732994 503.285027)scale(0.1 -0.1)">
     <use xlink:href="#DejaVuSans-73"/>
    </g>
   </g>
   <g id="text_90">
    <!-- P -->
    <g transform="translate(365.48505 519.806417)scale(0.1 -0.1)">
     <use xlink:href="#DejaVuSans-80"/>
    </g>
   </g>
   <g id="text_91">
    <!-- F -->
    <g transform="translate(357.922434 545.460116)scale(0.1 -0.1)">
     <use xlink:href="#DejaVuSans-70"/>
    </g>
   </g>
   <g id="text_92">
    <!-- W -->
    <g transform="translate(353.94898 561.584635)scale(0.1 -0.1)">
     <use xlink:href="#DejaVuSans-87"/>
    </g>
   </g>
   <g id="text_93">
    <!-- M -->
    <g transform="translate(356.078069 566.871881)scale(0.1 -0.1)">
     <use xlink:href="#DejaVuSans-77"/>
    </g>
   </g>
   <g id="text_94">
    <!-- S -->
    <g transform="translate(366.538393 588.291687)scale(0.1 -0.1)">
     <use xlink:href="#DejaVuSans-83"/>
    </g>
   </g>
   <g id="text_95">
    <!-- T -->
    <g transform="translate(388.720295 611.493521)scale(0.1 -0.1)">
     <use xlink:href="#DejaVuSans-84"/>
    </g>
   </g>
   <g id="text_96">
    <!-- C -->
    <g transform="translate(399.415125 617.679145)scale(0.1 -0.1)">
     <use xlink:href="#DejaVuSans-67"/>
    </g>
   </g>
   <g id="text_97">
    <!-- Y -->
    <g transform="translate(405.464366 619.616746)scale(0.1 -0.1)">
     <use xlink:href="#DejaVuSans-89"/>
    </g>
   </g>
   <g id="text_98">
    <!-- N -->
    <g transform="translate(416.28919 622.471179)scale(0.1 -0.1)">
     <use xlink:href="#DejaVuSans-78"/>
    </g>
   </g>
   <g id="text_99">
    <!-- Q -->
    <g transform="translate(437.567705 623.056498)scale(0.1 -0.1)">
     <use xlink:href="#DejaVuSans-81"/>
    </g>
   </g>
   <g id="text_100">
    <!-- K -->
    <g transform="translate(451.700743 620.807554)scale(0.1 -0.1)">
     <use xlink:href="#DejaVuSans-75"/>
    </g>
   </g>
   <g id="text_101">
    <!-- R -->
    <g transform="translate(462.349494 617.039927)scale(0.1 -0.1)">
     <use xlink:href="#DejaVuSans-82"/>
    </g>
   </g>
   <g id="text_102">
    <!-- H -->
    <g transform="translate(471.676634 611.994309)scale(0.1 -0.1)">
     <use xlink:href="#DejaVuSans-72"/>
    </g>
   </g>
   <g id="text_103">
    <!-- D -->
    <g transform="translate(488.454125 596.907735)scale(0.1 -0.1)">
     <use xlink:href="#DejaVuSans-68"/>
    </g>
   </g>
   <g id="text_104">
    <!-- E -->
    <g transform="translate(502.193371 568.591939)scale(0.1 -0.1)">
     <use xlink:href="#DejaVuSans-69"/>
    </g>
   </g>
   <g id="text_105">
    <!-- N-terminal sequence -->
    <g transform="translate(371.098551 464.117647)scale(0.12 -0.12)">
     <use xlink:href="#DejaVuSans-78"/>
     <use x="74.804688" xlink:href="#DejaVuSans-45"/>
     <use x="110.888672" xlink:href="#DejaVuSans-116"/>
     <use x="150.097656" xlink:href="#DejaVuSans-101"/>
     <use x="211.621094" xlink:href="#DejaVuSans-114"/>
     <use x="250.984375" xlink:href="#DejaVuSans-109"/>
     <use x="348.396484" xlink:href="#DejaVuSans-105"/>
     <use x="376.179688" xlink:href="#DejaVuSans-110"/>
     <use x="439.558594" xlink:href="#DejaVuSans-97"/>
     <use x="500.837891" xlink:href="#DejaVuSans-108"/>
     <use x="528.621094" xlink:href="#DejaVuSans-32"/>
     <use x="560.408203" xlink:href="#DejaVuSans-115"/>
     <use x="612.507812" xlink:href="#DejaVuSans-101"/>
     <use x="674.03125" xlink:href="#DejaVuSans-113"/>
     <use x="737.507812" xlink:href="#DejaVuSans-117"/>
     <use x="800.886719" xlink:href="#DejaVuSans-101"/>
     <use x="862.410156" xlink:href="#DejaVuSans-110"/>
     <use x="925.789062" xlink:href="#DejaVuSans-99"/>
     <use x="980.769531" xlink:href="#DejaVuSans-101"/>
    </g>
   </g>
  </g>
  <g id="axes_6">
   <g id="patch_102">
    <path d="M 1106.316578 550.058824 
C 1106.316578 545.850199 1105.901135 541.651832 1105.076296 537.524828 
C 1104.251457 533.397824 1103.021242 529.362301 1101.403557 525.476993 
L 1042.363636 550.058824 
L 1106.316578 550.058824 
z
" style="fill:#e4f8c7;stroke:#afabb3;stroke-linejoin:miter;stroke-width:0.5;"/>
   </g>
   <g id="patch_103">
    <path d="M 1101.403557 525.476993 
C 1100.601802 523.55136 1099.706317 521.666104 1098.720315 519.827988 
C 1097.734313 517.989871 1096.658974 516.201093 1095.498154 514.46807 
L 1042.363636 550.058824 
L 1101.403557 525.476993 
z
" style="fill:#e4f8c7;stroke:#afabb3;stroke-linejoin:miter;stroke-width:0.5;"/>
   </g>
   <g id="patch_104">
    <path d="M 1095.498154 514.46807 
C 1088.851142 504.544544 1079.555181 496.678801 1068.668294 491.766082 
C 1057.781406 486.853364 1045.732913 485.087401 1033.894118 486.669188 
L 1042.363636 550.058824 
L 1095.498154 514.46807 
z
" style="fill:#e4f8c7;stroke:#afabb3;stroke-linejoin:miter;stroke-width:0.5;"/>
   </g>
   <g id="patch_105">
    <path d="M 1033.894118 486.669188 
C 1024.915931 487.868767 1016.294195 490.96221 1008.601338 495.744131 
C 1000.90848 500.526052 994.318605 506.888226 989.269238 514.408248 
L 1042.363636 550.058824 
L 1033.894118 486.669188 
z
" style="fill:#e4f8c7;stroke:#afabb3;stroke-linejoin:miter;stroke-width:0.5;"/>
   </g>
   <g id="patch_106">
    <path d="M 989.269238 514.408248 
C 985.913753 519.405572 983.280542 524.851698 981.447656 530.585201 
C 979.614769 536.318704 978.600496 542.282372 978.434901 548.29944 
L 1042.363636 550.058824 
L 989.269238 514.408248 
z
" style="fill:#e4f8c7;stroke:#afabb3;stroke-linejoin:miter;stroke-width:0.5;"/>
   </g>
   <g id="patch_107">
    <path d="M 978.434901 548.29944 
C 978.417443 548.933767 978.409428 549.568319 978.410857 550.202885 
C 978.412287 550.837451 978.423161 551.47196 978.443476 552.106203 
L 1042.363636 550.058824 
L 978.434901 548.29944 
z
" style="fill:#e4f8c7;stroke:#afabb3;stroke-linejoin:miter;stroke-width:0.5;"/>
   </g>
   <g id="patch_108">
    <path d="M 978.443476 552.106203 
C 978.72724 560.965456 980.849752 569.669728 984.675956 577.665167 
C 988.50216 585.660607 993.949145 592.773957 1000.670321 598.552598 
L 1042.363636 550.058824 
L 978.443476 552.106203 
z
" style="fill:#e4f8c7;stroke:#afabb3;stroke-linejoin:miter;stroke-width:0.5;"/>
   </g>
   <g id="patch_109">
    <path d="M 1000.670321 598.552598 
C 1000.704133 598.581668 1000.737975 598.610703 1000.771847 598.639702 
C 1000.80572 598.668701 1000.839622 598.697665 1000.873555 598.726594 
L 1042.363636 550.058824 
L 1000.670321 598.552598 
z
" style="fill:#e4f8c7;stroke:#afabb3;stroke-linejoin:miter;stroke-width:0.5;"/>
   </g>
   <g id="patch_110">
    <path d="M 1000.873555 598.726594 
C 1002.152734 599.817115 1003.474411 600.85678 1004.835506 601.843166 
C 1006.196601 602.829552 1007.596055 603.761892 1009.03061 604.638014 
L 1042.363636 550.058824 
L 1000.873555 598.726594 
z
" style="fill:#e4f8c7;stroke:#afabb3;stroke-linejoin:miter;stroke-width:0.5;"/>
   </g>
   <g id="patch_111">
    <path d="M 1009.03061 604.638014 
C 1011.048024 605.870105 1013.1322 606.989394 1015.27354 607.990726 
C 1017.414881 608.992059 1019.610094 609.873897 1021.849071 610.632178 
L 1042.363636 550.058824 
L 1009.03061 604.638014 
z
" style="fill:#ffc561;stroke:#afabb3;stroke-linejoin:miter;stroke-width:0.5;"/>
   </g>
   <g id="patch_112">
    <path d="M 1021.849071 610.632178 
C 1024.731953 611.608533 1027.680864 612.377835 1030.673308 612.934215 
C 1033.665752 613.490596 1036.694102 613.832637 1039.735259 613.957731 
L 1042.363636 550.058824 
L 1021.849071 610.632178 
z
" style="fill:#ffc561;stroke:#afabb3;stroke-linejoin:miter;stroke-width:0.5;"/>
   </g>
   <g id="patch_113">
    <path d="M 1039.735259 613.957731 
C 1039.735259 613.957731 1039.735259 613.957731 1039.735259 613.957731 
L 1042.363636 550.058824 
L 1039.735259 613.957731 
z
" style="fill:#ffc561;stroke:#afabb3;stroke-linejoin:miter;stroke-width:0.5;"/>
   </g>
   <g id="patch_114">
    <path d="M 1039.735259 613.957731 
C 1041.061666 614.01229 1042.389451 614.025536 1043.716683 613.99745 
C 1045.043916 613.969364 1046.369952 613.899958 1047.692864 613.789334 
L 1042.363636 550.058824 
L 1039.735259 613.957731 
z
" style="fill:#ffc561;stroke:#afabb3;stroke-linejoin:miter;stroke-width:0.5;"/>
   </g>
   <g id="patch_115">
    <path d="M 1047.692864 613.789334 
C 1048.427774 613.72788 1049.161566 613.653719 1049.893911 613.566883 
C 1050.626256 613.480048 1051.357044 613.380551 1052.085948 613.268438 
L 1042.363636 550.058824 
L 1047.692864 613.789334 
z
" style="fill:#ffc561;stroke:#afabb3;stroke-linejoin:miter;stroke-width:0.5;"/>
   </g>
   <g id="patch_116">
    <path d="M 1052.085948 613.268438 
C 1054.317197 612.925248 1056.52871 612.464157 1058.711199 611.887101 
C 1060.893687 611.310045 1063.044091 610.617834 1065.153379 609.813374 
L 1042.363636 550.058824 
L 1052.085948 613.268438 
z
" style="fill:#ffc561;stroke:#afabb3;stroke-linejoin:miter;stroke-width:0.5;"/>
   </g>
   <g id="patch_117">
    <path d="M 1065.153379 609.813374 
C 1067.153629 609.0505 1069.114314 608.187671 1071.028025 607.228147 
C 1072.941736 606.268622 1074.806061 605.213612 1076.613958 604.067102 
L 1042.363636 550.058824 
L 1065.153379 609.813374 
z
" style="fill:#f93b3b;stroke:#afabb3;stroke-linejoin:miter;stroke-width:0.5;"/>
   </g>
   <g id="patch_118">
    <path d="M 1076.613958 604.067102 
C 1081.266643 601.116518 1085.518606 597.577038 1089.264119 593.536673 
C 1093.009632 589.496308 1096.217391 584.988827 1098.807634 580.126311 
L 1042.363636 550.058824 
L 1076.613958 604.067102 
z
" style="fill:#f93b3b;stroke:#afabb3;stroke-linejoin:miter;stroke-width:0.5;"/>
   </g>
   <g id="patch_119">
    <path d="M 1098.807634 580.126311 
C 1099.433385 578.951624 1100.022313 577.757688 1100.573558 576.546249 
C 1101.124802 575.33481 1101.638095 574.106458 1102.112685 572.862987 
L 1042.363636 550.058824 
L 1098.807634 580.126311 
z
" style="fill:#f93b3b;stroke:#afabb3;stroke-linejoin:miter;stroke-width:0.5;"/>
   </g>
   <g id="patch_120">
    <path d="M 1102.112685 572.862987 
C 1102.494303 571.863111 1102.850763 570.853814 1103.181726 569.836049 
C 1103.51269 568.818283 1103.818054 567.79237 1104.097529 566.759279 
L 1042.363636 550.058824 
L 1102.112685 572.862987 
z
" style="fill:#34cceb;stroke:#afabb3;stroke-linejoin:miter;stroke-width:0.5;"/>
   </g>
   <g id="patch_121">
    <path d="M 1104.097529 566.759279 
C 1104.833171 564.039947 1105.388334 561.274977 1105.759388 558.482442 
C 1106.130442 555.689907 1106.316578 552.875903 1106.316578 550.058824 
L 1042.363636 550.058824 
L 1104.097529 566.759279 
z
" style="fill:#34cceb;stroke:#afabb3;stroke-linejoin:miter;stroke-width:0.5;"/>
   </g>
   <g id="matplotlib.axis_11"/>
   <g id="matplotlib.axis_12"/>
   <g id="text_106">
    <!-- A -->
    <g transform="translate(1111.347562 539.030804)scale(0.1 -0.1)">
     <use xlink:href="#DejaVuSans-65"/>
    </g>
   </g>
   <g id="text_107">
    <!-- G -->
    <g transform="translate(1104.355983 519.564279)scale(0.1 -0.1)">
     <use xlink:href="#DejaVuSans-71"/>
    </g>
   </g>
   <g id="text_108">
    <!-- V -->
    <g transform="translate(1071.298759 488.696183)scale(0.1 -0.1)">
     <use xlink:href="#DejaVuSans-86"/>
    </g>
   </g>
   <g id="text_109">
    <!-- L -->
    <g transform="translate(999.653233 493.072036)scale(0.1 -0.1)">
     <use xlink:href="#DejaVuSans-76"/>
    </g>
   </g>
   <g id="text_110">
    <!-- I -->
    <g transform="translate(972.406058 531.397213)scale(0.1 -0.1)">
     <use xlink:href="#DejaVuSans-73"/>
    </g>
   </g>
   <g id="text_111">
    <!-- P -->
    <g transform="translate(965.985892 552.976666)scale(0.1 -0.1)">
     <use xlink:href="#DejaVuSans-80"/>
    </g>
   </g>
   <g id="text_112">
    <!-- F -->
    <g transform="translate(973.155625 583.185176)scale(0.1 -0.1)">
     <use xlink:href="#DejaVuSans-70"/>
    </g>
   </g>
   <g id="text_113">
    <!-- W -->
    <g transform="translate(986.725168 606.257165)scale(0.1 -0.1)">
     <use xlink:href="#DejaVuSans-87"/>
    </g>
   </g>
   <g id="text_114">
    <!-- M -->
    <g transform="translate(992.454568 609.780975)scale(0.1 -0.1)">
     <use xlink:href="#DejaVuSans-77"/>
    </g>
   </g>
   <g id="text_115">
    <!-- S -->
    <g transform="translate(1006.216093 616.543292)scale(0.1 -0.1)">
     <use xlink:href="#DejaVuSans-83"/>
    </g>
   </g>
   <g id="text_116">
    <!-- T -->
    <g transform="translate(1023.396462 621.98113)scale(0.1 -0.1)">
     <use xlink:href="#DejaVuSans-84"/>
    </g>
   </g>
   <g id="text_117">
    <!-- C -->
    <g transform="translate(1032.489608 623.106996)scale(0.1 -0.1)">
     <use xlink:href="#DejaVuSans-67"/>
    </g>
   </g>
   <g id="text_118">
    <!-- Y -->
    <g transform="translate(1043.851988 623.150688)scale(0.1 -0.1)">
     <use xlink:href="#DejaVuSans-89"/>
    </g>
   </g>
   <g id="text_119">
    <!-- N -->
    <g transform="translate(1050.646939 622.677064)scale(0.1 -0.1)">
     <use xlink:href="#DejaVuSans-78"/>
    </g>
   </g>
   <g id="text_120">
    <!-- Q -->
    <g transform="translate(1060.345955 620.829304)scale(0.1 -0.1)">
     <use xlink:href="#DejaVuSans-81"/>
    </g>
   </g>
   <g id="text_121">
    <!-- K -->
    <g transform="translate(1073.894464 615.704454)scale(0.1 -0.1)">
     <use xlink:href="#DejaVuSans-75"/>
    </g>
   </g>
   <g id="text_122">
    <!-- R -->
    <g transform="translate(1093.954167 600.643833)scale(0.1 -0.1)">
     <use xlink:href="#DejaVuSans-82"/>
    </g>
   </g>
   <g id="text_123">
    <!-- H -->
    <g transform="translate(1106.39455 581.954367)scale(0.1 -0.1)">
     <use xlink:href="#DejaVuSans-72"/>
    </g>
   </g>
   <g id="text_124">
    <!-- D -->
    <g transform="translate(1109.263535 574.573146)scale(0.1 -0.1)">
     <use xlink:href="#DejaVuSans-68"/>
    </g>
   </g>
   <g id="text_125">
    <!-- E -->
    <g transform="translate(1112.098963 562.084179)scale(0.1 -0.1)">
     <use xlink:href="#DejaVuSans-69"/>
    </g>
   </g>
   <g id="text_126">
    <!-- Last aminoacid -->
    <g transform="translate(996.845199 464.117647)scale(0.12 -0.12)">
     <use xlink:href="#DejaVuSans-76"/>
     <use x="55.712891" xlink:href="#DejaVuSans-97"/>
     <use x="116.992188" xlink:href="#DejaVuSans-115"/>
     <use x="169.091797" xlink:href="#DejaVuSans-116"/>
     <use x="208.300781" xlink:href="#DejaVuSans-32"/>
     <use x="240.087891" xlink:href="#DejaVuSans-97"/>
     <use x="301.367188" xlink:href="#DejaVuSans-109"/>
     <use x="398.779297" xlink:href="#DejaVuSans-105"/>
     <use x="426.5625" xlink:href="#DejaVuSans-110"/>
     <use x="489.941406" xlink:href="#DejaVuSans-111"/>
     <use x="551.123047" xlink:href="#DejaVuSans-97"/>
     <use x="612.402344" xlink:href="#DejaVuSans-99"/>
     <use x="667.382812" xlink:href="#DejaVuSans-105"/>
     <use x="695.166016" xlink:href="#DejaVuSans-100"/>
    </g>
   </g>
  </g>
 </g>
</svg>
